<svg height="511pt" viewBox="0 -4 511.9988 511" width="511pt" xmlns="http://www.w3.org/2000/svg"><path d="m316.355469 396.429688c-17.699219 17.308593-38.570313 26.457031-60.355469 26.457031s-42.65625-9.148438-60.359375-26.457031c-2.960937-2.898438-7.710937-2.84375-10.605469.117187-2.898437 2.960937-2.84375 7.710937.117188 10.605469 20.5625 20.105468 45.0625 30.734375 70.847656 30.734375s50.28125-10.628907 70.84375-30.734375c2.960938-2.894532 3.015625-7.644532.121094-10.605469-2.894532-2.960937-7.644532-3.015625-10.609375-.117187zm0 0"/><path d="m192.054688 258.453125c0 4.144531 3.359374 7.5 7.5 7.5 4.144531 0 7.503906-3.355469 7.503906-7.5 0-15.019531-12.222656-27.242187-27.246094-27.242187s-27.246094 12.222656-27.246094 27.242187c0 4.144531 3.359375 7.5 7.5 7.5 4.144532 0 7.5-3.355469 7.5-7.5 0-6.75 5.492188-12.242187 12.246094-12.242187 6.75 0 12.242188 5.492187 12.242188 12.242187zm0 0"/><path d="m332.1875 231.210938c-15.023438 0-27.246094 12.222656-27.246094 27.242187 0 4.144531 3.359375 7.5 7.5 7.5 4.144532 0 7.503906-3.355469 7.503906-7.5 0-6.75 5.492188-12.242187 12.242188-12.242187s12.242188 5.492187 12.242188 12.242187c0 4.144531 3.359374 7.5 7.503906 7.5 4.140625 0 7.5-3.355469 7.5-7.5 0-15.019531-12.222656-27.242187-27.246094-27.242187zm0 0"/><path d="m78.339844 386.605469c-20.90625-2.347657-38.867188-14.460938-48.050782-32.40625-9.441406-18.453125-7.867187-40.558594 4.105469-57.6875 2.203125-3.15625 1.664063-7.46875-1.253906-9.980469-6.808594-5.863281-11.847656-13.046875-14.980469-21.355469-8.578125-22.75.789063-48.71875 22.269532-61.753906 4.066406-2.464844 8.417968-4.417969 12.941406-5.804687 3.960937-1.214844 6.1875-5.410157 4.976562-9.367188-1.214844-3.960938-5.40625-6.191406-9.367187-4.976562-5.710938 1.75-11.207031 4.214843-16.332031 7.324218-27.652344 16.773438-39.648438 50.367188-28.523438 79.867188 3.257812 8.648437 8.121094 16.34375 14.484375 22.953125-11.902344 20.789062-12.660156 46.140625-1.675781 67.613281 11.484375 22.4375 33.8125 37.570312 59.734375 40.480469.285156.03125.566406.046875.847656.046875 3.765625 0 7.011719-2.832032 7.445313-6.664063.460937-4.117187-2.503907-7.828125-6.621094-8.289062zm0 0"/><path d="m479.351562 190.597656c-5.128906-3.109375-10.625-5.574218-16.335937-7.324218-3.957031-1.214844-8.15625 1.015624-9.367187 4.976562-1.214844 3.957031 1.011718 8.152344 4.972656 9.367188 4.527344 1.386718 8.882812 3.339843 12.949218 5.804687 21.480469 13.035156 30.847657 39.003906 22.269532 61.753906-3.132813 8.308594-8.171875 15.492188-14.980469 21.355469-2.917969 2.511719-3.457031 6.824219-1.253906 9.980469 11.972656 17.132812 13.546875 39.234375 4.105469 57.6875-9.152344 17.882812-27.042969 29.988281-47.867188 32.382812-4.113281.476563-7.066406 4.195313-6.59375 8.3125.441406 3.824219 3.683594 6.644531 7.441406 6.644531.289063 0 .578125-.019531.867188-.050781 25.820312-2.972656 48.066406-18.097656 59.503906-40.457031 10.988281-21.46875 10.230469-46.820312-1.675781-67.609375 6.367187-6.609375 11.226562-14.304687 14.484375-22.953125 11.128906-29.503906-.871094-63.097656-28.519532-79.871094zm0 0"/><path d="m449.589844 248.582031c0-9.242187-5.015625-24.644531-37.085938-28.460937v-3.898438c0-9.351562-1.304687-18.488281-3.894531-27.292968.804687.0625 1.601563.09375 2.394531.09375 14.472656 0 27.273438-10.042969 30.414063-24.71875l.101562-.496094c1.789063-8.355469.148438-16.867188-4.621093-23.960938-4.785157-7.113281-12.074219-11.863281-20.527344-13.367187-8.011719-1.429688-16.035156-2.746094-24.066406-3.960938v-24.796875c0-53.609375-43.613282-97.222656-97.222657-97.222656h-78.164062c-53.609375 0-97.226563 43.613281-97.226563 97.222656v24.800782c-8.027344 1.210937-16.050781 2.53125-24.066406 3.957031-8.449219 1.503906-15.742188 6.253906-20.523438 13.367187-4.769531 7.09375-6.414062 15.605469-4.625 23.953125l.101563.476563c3.316406 15.507812 17.375 25.828125 32.808594 24.652344-2.585938 8.804687-3.894531 17.941406-3.894531 27.292968v3.898438c-32.066407 3.816406-37.085938 19.21875-37.085938 28.464844 0 30.117187 0 64.023437 37.085938 68.945312v28.546875c0 86.296875 70.210937 156.503906 156.507812 156.503906s156.503906-70.207031 156.503906-156.503906v-28.546875c37.085938-4.925781 37.085938-38.828125 37.085938-68.949219zm-15 0c0 34.886719-2.0625 50.386719-22.085938 53.808594v-67.160156c19.757813 2.6875 22.085938 10.046875 22.085938 13.351562zm-299.894532-150.859375c0-45.339844 36.882813-82.222656 82.222657-82.222656h78.164062c45.335938 0 82.222657 36.882812 82.222657 82.222656v22.65625c-80.65625-10.820312-161.957032-10.820312-242.609376 0zm-49.449218 63.429688-.101563-.480469c-.929687-4.34375-.074219-8.769531 2.40625-12.453125 2.492188-3.710938 6.296875-6.1875 10.707031-6.972656 104.667969-18.640625 210.8125-18.640625 315.484376 0 4.410156.785156 8.214843 3.261718 10.707031 6.972656 2.480469 3.6875 3.332031 8.109375 2.402343 12.464844l-.097656.457031c-1.84375 8.613281-10.050781 14.15625-18.683594 12.617187-100.90625-17.980468-203.234374-17.980468-304.144531 0-8.632812 1.542969-16.835937-4.003906-18.679687-12.605468zm-7.839844 87.429687c0-8.503906 12.273438-11.9375 22.085938-13.320312v67.128906c-20.023438-3.421875-22.085938-18.921875-22.085938-53.808594zm320.097656 97.492188c0 78.027343-63.480468 141.503906-141.503906 141.503906-78.027344 0-141.503906-63.476563-141.503906-141.503906v-129.851563c0-10.398437 1.90625-20.472656 5.671875-30.007812 90.203125-14.585938 181.457031-14.585938 271.660156 0 3.769531 9.535156 5.675781 19.609375 5.675781 30.007812zm0 0"/><path d="m351.378906 370.398438c-7.226562-6.449219-16.539062-9.695313-26.195312-9.148438-9.667969.550781-18.539063 4.832031-24.988282 12.054688-12.527343 14.039062-28.222656 21.769531-44.195312 21.769531s-31.667969-7.730469-44.195312-21.769531c-6.449219-7.222657-15.324219-11.503907-24.988282-12.054688-9.675781-.550781-18.972656 2.699219-26.195312 9.148438-14.910156 13.308593-16.214844 36.269531-2.90625 51.183593 26.46875 29.65625 61.375 45.992188 98.285156 45.992188 36.914062 0 71.820312-16.335938 98.289062-45.992188 6.445313-7.226562 9.695313-16.527343 9.144532-26.195312-.550782-9.667969-4.832032-18.542969-12.054688-24.988281zm-8.285156 41.191406c-23.582031 26.429687-54.515625 40.980468-87.09375 40.980468-32.582031 0-63.511719-14.550781-87.097656-40.976562-7.800782-8.742188-7.035156-22.203125 1.707031-30.003906 3.925781-3.503906 8.898437-5.394532 14.121094-5.394532.410156 0 .820312.011719 1.234375.035157 5.664062.320312 10.867187 2.832031 14.644531 7.066406 15.414063 17.269531 35.085937 26.777344 55.390625 26.777344s39.976562-9.507813 55.390625-26.777344c3.777344-4.234375 8.980469-6.746094 14.644531-7.066406 5.675782-.332031 11.121094 1.582031 15.355469 5.359375 8.738281 7.800781 9.503906 21.261718 1.703125 30zm0 0"/><path d="m237.34375 260.945312c0-31.726562-25.808594-57.53125-57.53125-57.53125-31.726562 0-57.535156 25.808594-57.535156 57.53125 0 31.722657 25.808594 57.53125 57.535156 57.53125 31.722656 0 57.53125-25.808593 57.53125-57.53125zm-100.0625 0c0-23.453124 19.078125-42.53125 42.53125-42.53125 23.449219 0 42.53125 19.078126 42.53125 42.53125 0 23.449219-19.082031 42.53125-42.53125 42.53125-23.453125 0-42.53125-19.082031-42.53125-42.53125zm0 0"/><path d="m332.1875 203.414062c-31.722656 0-57.53125 25.808594-57.53125 57.53125 0 31.722657 25.808594 57.53125 57.53125 57.53125s57.53125-25.808593 57.53125-57.53125c0-31.722656-25.808594-57.53125-57.53125-57.53125zm0 100.0625c-23.453125 0-42.53125-19.082031-42.53125-42.53125 0-23.453124 19.078125-42.53125 42.53125-42.53125s42.53125 19.078126 42.53125 42.53125c0 23.449219-19.078125 42.53125-42.53125 42.53125zm0 0"/><path d="m218.671875 338.867188c0 20.582031 16.746094 37.328124 37.328125 37.328124s37.324219-16.746093 37.324219-37.328124c0-20.582032-16.742188-37.324219-37.324219-37.324219s-37.328125 16.742187-37.328125 37.324219zm37.328125-22.324219c12.308594 0 22.324219 10.015625 22.324219 22.324219 0 12.308593-10.015625 22.324218-22.324219 22.324218-12.3125 0-22.324219-10.015625-22.324219-22.324218 0-12.308594 10.011719-22.324219 22.324219-22.324219zm0 0"/></svg>