<svg xmlns="http://www.w3.org/2000/svg" viewBox="0 0 500 500"><g id="freepik--background-simple--inject-283"><path d="M59.59,129.6l1.06-4c9-33.54,35.25-59.82,68.82-67.34a89.43,89.43,0,0,1,13.13-2C174.44,54,207.12,69.08,226.39,95c11.33,15.21,18.83,34.35,34.84,44.39,20.84,13.05,47.66,5.84,70.88-1.72s50.07-14.71,70.86-1.55c13,8.23,26.17,23.33,31.46,37.89,17.26,47.59-5.5,90.51-35.25,118.13S318.36,336.62,278,340c-56.54,4.8-114.93-20.52-158.77-57.29S49.52,186,59.59,129.6Z" style="fill:#ebebeb"></path></g><g id="freepik--character-2--inject-283"><path d="M268.67,384.59s-2.35-4.52-4.52-5.6-14.11-4-16.28-4.35-15.92-2.17-18.09,0c0,0-2,1.81,1.27,4l8.14,2.54H233l-3.86-1.52s.24-4.09-2.11-5-2.89,1.45-3.8,2.9l-6.87-4s-2.72-.39-1.45,4,7.78,8.14,7.78,8.14,1.08,4.88,2.53,5.61c0,0,1.81,6,3.62,6.69a61.39,61.39,0,0,0,3.8,5.61c1.26,1.44,6.69,4.34,6.69,4.34s20.8-2,23.7-3.26Z" style="fill:#9e7361"></path><path d="M299.72,376.12c-1,.89,4.46,15.79,4.46,15.79l-39.75-8.79-3.82,21.54s59.77,23.23,63.89,23.23,19.71,1.2,17.35-21.16l-7-20-5.22-5.82Z" style="fill:#9e7361"></path><path d="M321.82,405.66c-.06,0-.87-.93-2.28-2.42a52.89,52.89,0,0,0-5.93-5.36,51.86,51.86,0,0,0-6.68-4.37c-1.8-1-2.95-1.53-2.92-1.6s.32.06.86.27,1.3.54,2.23,1A41.85,41.85,0,0,1,319.81,403c.67.78,1.2,1.44,1.53,1.91A2.87,2.87,0,0,1,321.82,405.66Z" style="fill:#755043"></path><path d="M444.77,381.88s36.18,36.28,34.42,70.8v7.85l-31.64.25-36.92-72Z" style="fill:#263238"></path><path d="M250.44,232.86a33,33,0,0,1,4.46,31.27c-1.79,4.68-4.71,9.09-5,14.09-.35,5.54,2.56,10.73,3.61,16.18s-1.06,12.56-6.56,13.35c7.45,5.05,16.56,7.21,25.56,7.61s18-.83,26.9-2.08c5-.69,10.27-1.54,13.89-5,4.69-4.49,5-11.75,5-18.23q0-28.26,0-56.52" style="fill:#263238"></path><path d="M309.37,186.64a7.85,7.85,0,0,0-9.58-4.57l-40.69-1.93c-12.82,3.93-16.29,31.11-11.82,43.76,5,14,13.44,29.94,19.41,39.46,12,19.13,26.09,13.94,26.09,13.94L310.32,309l40.15-16.2Z" style="fill:#9e7361"></path><path d="M260.49,238.29a2.86,2.86,0,0,0,3.67,1.58,2.74,2.74,0,0,0,1.7-3.53,2.86,2.86,0,0,0-3.67-1.58A2.73,2.73,0,0,0,260.49,238.29Z" style="fill:#263238"></path><path d="M254.94,231.75c.4.13,2.35-1,5.38-1.54s5.45-.09,5.73-.34-.29-.39-1.35-.59a13.53,13.53,0,0,0-4.64,0,12.42,12.42,0,0,0-4.22,1.46C255,231.3,254.75,231.69,254.94,231.75Z" style="fill:#263238"></path><path d="M285.62,227.19a2.86,2.86,0,0,0,3.67,1.58,2.75,2.75,0,0,0,1.7-3.54,2.86,2.86,0,0,0-3.67-1.57A2.73,2.73,0,0,0,285.62,227.19Z" style="fill:#263238"></path><path d="M283.77,222c.45-.07,1.67-2.24,4.3-4.3s5.17-2.9,5.31-3.29c.07-.18-.5-.24-1.63.1a14.28,14.28,0,0,0-4.43,2.42,12.78,12.78,0,0,0-3.24,3.64C283.56,221.52,283.55,222,283.77,222Z" style="fill:#263238"></path><path d="M281.37,245.1c-.05-.16-1.94.28-4.95,1.13-.76.24-1.5.39-1.84-.06a4,4,0,0,1-.43-2.35c-.06-2-.13-4.17-.21-6.42-.37-9.11-1-16.47-1.34-16.45s-.36,7.41,0,16.52q.17,3.36.31,6.42a4.53,4.53,0,0,0,.84,3,2,2,0,0,0,1.64.55,5.18,5.18,0,0,0,1.3-.36C279.64,246,281.43,245.27,281.37,245.1Z" style="fill:#263238"></path><path d="M292.87,277.5a56.75,56.75,0,0,0,24.36-19.06s0,17.68-21.32,24.52Z" style="fill:#755043"></path><path d="M284.78,251.79c.5-2.71,2-5,3.9-5.93a3.52,3.52,0,0,1,3.95.41,5.59,5.59,0,0,1,1.56,4.9,4.7,4.7,0,0,1-3.4,3.91,7.87,7.87,0,0,1-4.53-.78,2.74,2.74,0,0,1-1.15-.71,1.9,1.9,0,0,1-.42-1.58" style="fill:#755043"></path><path d="M290.55,243.51c-.48.17.83,3.24-.87,6.55s-5.12,4.36-5,4.8c0,.21,1,.29,2.38-.27a8.3,8.3,0,0,0,4.22-3.83,7.29,7.29,0,0,0,.53-5.41C291.42,244,290.75,243.4,290.55,243.51Z" style="fill:#263238"></path><path d="M276.15,210.61c.67.59,3.17-1.24,6.55-2.61s6.41-1.91,6.47-2.8c0-.41-.81-.86-2.24-1a12.28,12.28,0,0,0-9.91,4.12C276.11,209.43,275.85,210.33,276.15,210.61Z" style="fill:#263238"></path><path d="M251.41,225.89c.89.37,3-1.34,5.92-2.62s5.56-1.89,5.84-2.81c.11-.43-.56-.9-1.9-1.05a10.62,10.62,0,0,0-5.29,1,10.47,10.47,0,0,0-4.18,3.34C251.05,224.88,251,225.69,251.41,225.89Z" style="fill:#263238"></path><path d="M351.09,229.28c-5.47-8.46-22.87-35.65-37.24-47.7s-26.21-14.33-36.23-12.9a22.49,22.49,0,0,0-17.86,13c-2.5,5.37.65,16.53.65,16.53s23.74-4.48,36.35,4.75c14.48,10.6,19.57,16.87,19.57,16.87l6.05,6.6S336,261.93,338.3,269.76l37.21-10.27C367.94,254.18,356.56,237.74,351.09,229.28Z" style="fill:#263238"></path><path d="M259.85,198.59s-13,4-11.54,19.94c.64,7.22,7.93,26.05,7.93,26.05s-9.07-13.6-12-22.18S241,201.57,244.9,193c3.76-8.3,7.83-13.18,19.17-17.25,0,0-4.39,4-5.42,9.38C258.14,187.88,258.29,189.93,259.85,198.59Z" style="fill:#263238"></path><path d="M316.65,221c-1.72-4.63,1.92-9.78,6.83-9.2,2.7.33,5.43,2.13,7.3,7,5,13.08-9.18,15.38-9.34,15S318.66,226.39,316.65,221Z" style="fill:#9e7361"></path><path d="M323.54,227.33c0-.06.29.07.74.1a2.45,2.45,0,0,0,1.72-.61c1.19-1,1.52-3.67.68-6a8.08,8.08,0,0,0-1.88-3,2.84,2.84,0,0,0-2.38-1.1,1.26,1.26,0,0,0-1.11,1.14c0,.43.15.66.09.71s-.36-.11-.46-.69a1.54,1.54,0,0,1,.2-1,1.83,1.83,0,0,1,1.13-.81,3.44,3.44,0,0,1,3.15,1.12,8.17,8.17,0,0,1,2.18,3.35c.92,2.66.51,5.64-1.17,6.91a2.63,2.63,0,0,1-2.21.45C323.69,227.64,323.51,227.37,323.54,227.33Z" style="fill:#755043"></path><path d="M272.13,170.08c0,.09-1.75.8-4.38,2.37a15.94,15.94,0,0,0-7.22,9.1,26,26,0,0,0-1.12,11.78c.42,3,1.09,4.84,1,4.87a5.84,5.84,0,0,1-.49-1.25,24.28,24.28,0,0,1-.85-3.57,24.84,24.84,0,0,1,1-12,15.77,15.77,0,0,1,7.51-9.24,29.42,29.42,0,0,1,3.29-1.61A6.48,6.48,0,0,1,272.13,170.08Z" style="fill:#455a64"></path><path d="M332.53,225.15a.8.8,0,0,1-.07-.22l-.15-.65c-.06-.3-.14-.65-.22-1.05s-.24-.9-.38-1.43a33.65,33.65,0,0,0-13.33-18.47,37.7,37.7,0,0,0-15.82-5.75,70.45,70.45,0,0,0-8.79-.68c-2.85-.07-5.6.1-8.24,0a91.08,91.08,0,0,1-13.9-1.49c-3.92-.72-7.05-1.47-9.2-2-1.07-.29-1.9-.52-2.46-.69l-.64-.19c-.14,0-.22-.08-.21-.09l.22,0,.65.15,2.49.59c2.16.51,5.3,1.21,9.21,1.88a94.62,94.62,0,0,0,13.84,1.38c2.61,0,5.38-.14,8.25-.08a69.79,69.79,0,0,1,8.85.68,37.9,37.9,0,0,1,16,5.86,33.37,33.37,0,0,1,9.57,10.14,31.92,31.92,0,0,1,3.68,8.66c.13.54.24,1,.34,1.44l.18,1.07c0,.27.07.49.1.66A.8.8,0,0,1,332.53,225.15Z" style="fill:#455a64"></path><path d="M333.42,219a1,1,0,0,1-.1-.2l-.26-.62c-.23-.54-.51-1.36-1-2.38a53.22,53.22,0,0,0-13.73-18.7,52.47,52.47,0,0,0-14.46-8.94,61.87,61.87,0,0,0-16.58-4c-5.23-.6-10-.76-14-.95s-7.21-.35-9.44-.53c-1.11-.08-2-.18-2.56-.24l-.66-.08-.23,0a.52.52,0,0,1,.23,0l.67,0,2.56.14c2.23.13,5.46.25,9.44.37s8.75.28,14,.85a61.55,61.55,0,0,1,16.72,3.95,52.14,52.14,0,0,1,14.58,9.06,53.41,53.41,0,0,1,9.18,10.6,50.37,50.37,0,0,1,4.42,8.37c.43,1,.68,1.86.88,2.41.09.26.16.47.21.64A.63.63,0,0,1,333.42,219Z" style="fill:#455a64"></path><path d="M395.69,263.88,425,297.72l-39.81,29s-30.61-29.17-30.61-48.28c0-15.93,6.67-30.12,23.89-25.4A35.84,35.84,0,0,1,395.69,263.88Z" style="fill:#455a64"></path><path d="M365.52,252.79l-30.13,11S333.67,301,324.5,302.37c-1.57.23-3.09,1-4.64,1.2-8.84,1.08-13.86-7.83-20.58-13.67l-10.79,8s-12.28,9-16.54,22.58c-3.12,10,11.76,58,11.76,58L326.35,380s17.37,18.19,24.49,20.15c10.06,2.77,71.17-7.86,78.33-9.67,10.94-2.75,16.95-8.27,16.95-8.27Z" style="fill:#455a64"></path><path d="M346,397.59a2.59,2.59,0,0,1-.48-.28l-1.31-.88c-1.15-.76-2.76-1.95-4.7-3.47a101.67,101.67,0,0,1-13.8-13.41,154.91,154.91,0,0,1-11.49-15.43c-1.36-2.06-2.43-3.74-3.15-4.91l-.82-1.36a2.19,2.19,0,0,1-.26-.49s.13.14.35.44l.9,1.3c.82,1.2,1.93,2.82,3.28,4.81a181.59,181.59,0,0,0,11.59,15.31,111.72,111.72,0,0,0,13.64,13.45c1.9,1.55,3.46,2.79,4.57,3.59l1.26,1Q346,397.56,346,397.59Z" style="fill:#263238"></path><path d="M431,397.9c4.9-2.44,20.21-9.2,20.21-9.2l-7.25-10.07-5.62,2.83a85.67,85.67,0,0,1-27.69,8.43l-64,8.07s-12.21,47.77-16.44,62.57l133.35-.14Z" style="fill:#e0e0e0"></path><path d="M327.14,233.22c-2.54,3.38-1.09,8.25,1,11.94s4.78,7.44,4.48,11.66c-.33,4.64-4.22,8.34-5,12.92-.68,3.9,1,7.78,1.69,11.67s0,8.72-3.55,10.43a61.26,61.26,0,0,0,34.32.18l1.47-18.11,5.48,9.74c2.86-.52,5-3.11,5.78-5.9a18.66,18.66,0,0,0-.15-8.63,60.11,60.11,0,0,0-10.52-23.72" style="fill:#263238"></path><path d="M404.44,425.2c-2.19-2.43-6.53.34-9.39-1.24a8.9,8.9,0,0,1-2.29-2.29,4,4,0,0,0-2.68-1.7c-.84,0-1.59.95-1.85,2.08a5.14,5.14,0,0,0-3.75-3.22,4.94,4.94,0,0,0-4.35,2.48,23.77,23.77,0,0,0-2.05,4.84,8.25,8.25,0,0,1-3,4.23c-1.61,1-3.62,1-5.46,1.47s-3.77,1.89-3.59,3.78c.17,1.73,2,2.77,3.67,3.24s3.54.73,4.71,2c2.12,2.31,1.07,6.93,3.93,8.19,1.68.74,3.59-.34,5-1.54s2.78-2.65,4.61-2.81c3-.27,5.09,2.92,8,3.7a5.16,5.16,0,0,0,6.23-6.66c-.5-1.44-1.62-2.65-1.83-4.16-.32-2.32,1.56-4.27,3-6.08S406,426.94,404.44,425.2Z" style="fill:#9E5EFF"></path><g style="opacity:0.2"><path d="M375,345.7c-22.89-4.93-46.77-6-69.74-1.43l4.94,7.36c2.12,3.15,6,4.68,9.77,5.21s7.61.25,11.38.71c14.73,1.82,25.57,14.19,38.48,21.5,22.21,12.58,52.49,8.73,70.84-9C419.81,359.36,397.87,350.63,375,345.7Z"></path></g><path d="M418.91,302.37s14.56,28.15,20.51,42.9,1.74,18.15.61,23.82S426.09,378,426.09,378s-35.1,0-59.16-15.16c-17.8-11.2-37.91-11.58-37.91-11.58l-4.52-19.7L397.22,335l-6.16-13.2Z" style="fill:#9e7361"></path><path d="M397.22,335a6,6,0,0,1,1.25-.18c.81-.1,2-.18,3.45-.25a38.67,38.67,0,0,1,11.37,1,36.13,36.13,0,0,1,5.94,2.11c1.78.77,3.33,1.57,4.62,2.25s2.32,1.26,3,1.68a6.21,6.21,0,0,1,1.06.69,6.12,6.12,0,0,1-1.16-.51l-3.09-1.53c-1.31-.64-2.87-1.4-4.64-2.14a40,40,0,0,0-5.88-2.05,43.39,43.39,0,0,0-11.23-1.15l-3.44.09A5.67,5.67,0,0,1,397.22,335Z" style="fill:#755043"></path><path d="M326.13,331.68s-31.76-2.84-35.45-1.42-5.67,2-8.78,1.14-9.08-1.77-9.08-1.77-1.57,5.25,4.95,8.65l-8.07,6-5.38,13.49a4,4,0,0,0,5,.42c3.12-1.7,7.66-10.74,7.66-10.74l8.84-3.17-2,11.51s7.09,10.77,9.64,11.06,13.33-.85,13.33-2.56c0,0,5.95-2.55,5.95-5.95s-.85-4.82-.85-4.82l-1.7-2,2.55-1.42,11.34,2.55s4.82-.57,6.81-2Z" style="fill:#9e7361"></path><path d="M289.1,338.63a2.51,2.51,0,0,1-.07-1.35,7.69,7.69,0,0,1,3.37-5.46,2.61,2.61,0,0,1,1.25-.55,10.4,10.4,0,0,0-4.55,7.36Z" style="fill:#755043"></path><path d="M296.11,341a3.06,3.06,0,0,1,.18-2.35c.48-1.25,1.34-2,1.43-1.86s-.51.9-.94,2.05S296.26,341,296.11,341Z" style="fill:#755043"></path><path d="M299.28,366.1a3.11,3.11,0,0,1-1-.27,21.51,21.51,0,0,1-2.51-1.06,10.89,10.89,0,0,1-3.27-2.42,7.31,7.31,0,0,1-1.78-4.66,13.38,13.38,0,0,1,.84-4.91c.5-1.44,1.07-2.68,1.51-3.73.91-2.09,1.28-3.45,1.35-3.44a3.3,3.3,0,0,1-.16,1,25,25,0,0,1-.85,2.58c-.4,1.08-.93,2.33-1.4,3.75a13.86,13.86,0,0,0-.77,4.74A6.94,6.94,0,0,0,292.9,362a11,11,0,0,0,3.08,2.41C298,365.52,299.31,366,299.28,366.1Z" style="fill:#755043"></path><path d="M302.94,346.22a2.28,2.28,0,0,1,0,.84,12.08,12.08,0,0,1-.48,2.25c-.28.92-.69,2-1.13,3.18a16.08,16.08,0,0,0-1,3.92,6.53,6.53,0,0,0,.65,3.86,6.79,6.79,0,0,0,2.22,2.34c1.58,1,2.74,1.39,2.7,1.48a2.5,2.5,0,0,1-.82-.2,10.22,10.22,0,0,1-2.08-1,6.36,6.36,0,0,1-3.19-6.56,15.51,15.51,0,0,1,1.06-4c.47-1.19.91-2.23,1.23-3.13C302.76,347.4,302.85,346.21,302.94,346.22Z" style="fill:#755043"></path><path d="M307.29,360c-.13-.09,1.1-1.79,1.92-4.21s.91-4.5,1.07-4.5a11.44,11.44,0,0,1-3,8.71Z" style="fill:#755043"></path><path d="M303.9,342.85c-.07,0-.12-.31,0-.77a3,3,0,0,1,1.13-1.46,2.87,2.87,0,0,1,1.77-.53c.48,0,.74.18.73.24a5.77,5.77,0,0,0-2.21.72C304.27,341.77,304,342.88,303.9,342.85Z" style="fill:#755043"></path><path d="M264.29,357.47a1,1,0,0,0,1.21.34,3.63,3.63,0,0,0,1.09-.83,1.85,1.85,0,0,1,1.2-.6c.46,0,.93.45.79.89a2.34,2.34,0,0,1,1.1-.65.82.82,0,0,1,1,.63c0,.4-.34.7-.68.9a5.41,5.41,0,0,1-3,.9,3,3,0,0,1-2.6-1.65" style="fill:#9E5EFF"></path><path d="M284.36,334.43a20.84,20.84,0,0,1-3.81,2.46,19.45,19.45,0,0,1-4.07,2,20.25,20.25,0,0,1,3.81-2.46A19,19,0,0,1,284.36,334.43Z" style="fill:#755043"></path><path d="M350.79,355.3c.95.37.66-2,0-2.77a6.85,6.85,0,0,0-2.49-1.73,5.15,5.15,0,0,1-2.36-1.87c-.91-1.59-.28-4.05-1.83-5-1.24-.77-2.82.12-3.92,1.07s-2.41,2.06-3.82,1.7c-.85-.21-1.49-.93-2.33-1.21a3.26,3.26,0,0,0-3.66,1.84,9.1,9.1,0,0,0-.69,4.37S343.64,352.53,350.79,355.3Z" style="fill:#9E5EFF"></path><path d="M415.13,409.14a4.84,4.84,0,0,1-.29.64c-.21.4-.49,1-.92,1.77a64.7,64.7,0,0,1-3.92,6.21,89.63,89.63,0,0,1-16.66,17.52,158.25,158.25,0,0,1-20,13.63c-2.67,1.57-4.86,2.78-6.38,3.61l-1.77.93a4,4,0,0,1-.63.3,3.07,3.07,0,0,1,.58-.39l1.72-1,6.29-3.74A174.91,174.91,0,0,0,393,434.88a95,95,0,0,0,16.7-17.33c1.81-2.5,3.15-4.61,4-6.1.46-.74.77-1.33,1-1.72A3.7,3.7,0,0,1,415.13,409.14Z" style="fill:#263238"></path></g><g id="freepik--Desk--inject-283"><path d="M481.13,460.53c0,.14-103.49.26-231.12.26s-231.14-.12-231.14-.26,103.46-.26,231.14-.26S481.13,460.38,481.13,460.53Z" style="fill:#263238"></path></g><g id="freepik--speech-bubble--inject-283"><path d="M262.38,136.2l16.06-10.6a44.87,44.87,0,1,0-12.64-9.92h0Z" style="fill:#fff"></path><path d="M262.38,136.2c.15-.92,1.19-7.45,3.27-20.55a.13.13,0,0,1,.15-.11l.05,0h0l-.17.2a46.15,46.15,0,0,1-6.15-8.82,44.66,44.66,0,0,1-4.32-12,40.11,40.11,0,0,1-.83-7c0-1.22-.07-2.46-.05-3.72s.21-2.52.32-3.81a45.19,45.19,0,0,1,16-29.12,44.59,44.59,0,0,1,16.75-8.71,45.78,45.78,0,0,1,19.91-.81,44.21,44.21,0,0,1,19,8.34l2.13,1.69c.72.55,1.32,1.23,2,1.84s1.34,1.21,1.91,1.91l1.74,2a19.48,19.48,0,0,1,1.62,2.12l1.53,2.18,1.31,2.29a20.72,20.72,0,0,1,1.23,2.33,45.72,45.72,0,0,1,4.42,19.81,44,44,0,0,1-4.2,18.74,45.43,45.43,0,0,1-24.66,23,48.25,48.25,0,0,1-14.4,2.92,44.37,44.37,0,0,1-12.69-1.34,45.83,45.83,0,0,1-9.92-3.83h.13l-16.13,10.5,16-10.71a.15.15,0,0,1,.13,0,45,45,0,0,0,9.88,3.75,43.81,43.81,0,0,0,12.6,1.28,47.76,47.76,0,0,0,14.27-2.94,45,45,0,0,0,24.37-22.78,43.74,43.74,0,0,0,4.13-18.54,45.17,45.17,0,0,0-4.39-19.59,21,21,0,0,0-1.21-2.3l-1.3-2.27L335.34,60a19.07,19.07,0,0,0-1.6-2.1l-1.73-2c-.56-.69-1.25-1.25-1.88-1.89s-1.25-1.27-2-1.81l-2.1-1.67a43.66,43.66,0,0,0-18.8-8.25,45.06,45.06,0,0,0-19.68.79A44.11,44.11,0,0,0,271,51.61a44.77,44.77,0,0,0-15.95,28.8c-.11,1.28-.21,2.54-.32,3.78s0,2.47,0,3.68a40.51,40.51,0,0,0,.81,7,44.36,44.36,0,0,0,4.24,11.94,45.9,45.9,0,0,0,6.07,8.79.13.13,0,0,1,0,.18.14.14,0,0,1-.16,0h0l.2-.09Z" style="fill:#263238"></path><path d="M313.56,81.26a15.06,15.06,0,1,0-21.48,13.62v3.8h13.2s.08-2.13.11-4A15,15,0,0,0,313.56,81.26Z" style="fill:#9E5EFF"></path><path d="M300.51,98.61s0-.06,0-.18,0-.31.06-.54c.06-.48.15-1.19.28-2.09s.31-2,.6-3.27a21.63,21.63,0,0,1,1.37-4.19,13.49,13.49,0,0,1,1.23-2.25,2.88,2.88,0,0,1,1-.93,1.54,1.54,0,0,1,1.43,0,1,1,0,0,1,.48.59,1.11,1.11,0,0,1-.06.78,2.22,2.22,0,0,1-1.17,1,4.12,4.12,0,0,1-3.13-.22,4.17,4.17,0,0,1-2.12-2.52,3.17,3.17,0,0,1-.09-1.73,1.35,1.35,0,0,1,1.37-1,1,1,0,0,1,.76.53,1.43,1.43,0,0,1,.13.93,3,3,0,0,1-1.06,1.5,4.48,4.48,0,0,1-3.51,1,3.93,3.93,0,0,1-2.92-2.17,2.3,2.3,0,0,1-.1-1.82,1.18,1.18,0,0,1,.66-.67,1.16,1.16,0,0,1,.93.09,1.51,1.51,0,0,1,.64.66,2.39,2.39,0,0,1,.23.87,4.54,4.54,0,0,1-.23,1.72,4.48,4.48,0,0,1-2.13,2.52,4.53,4.53,0,0,1-3.11.43,2.39,2.39,0,0,1-1.36-.72,1.17,1.17,0,0,1-.08-1.45,1,1,0,0,1,.68-.33,1.33,1.33,0,0,1,.71.14,2.25,2.25,0,0,1,.93,1c.37.82.68,1.61,1,2.37,1.2,3,2.05,5.54,2.63,7.27.28.87.49,1.54.63,2l.16.53a1,1,0,0,1,.05.18,1.52,1.52,0,0,1-.07-.18l-.17-.52c-.16-.46-.38-1.13-.67-2-.6-1.72-1.47-4.21-2.69-7.24-.31-.75-.62-1.55-1-2.35a2.08,2.08,0,0,0-.86-1,1,1,0,0,0-1.21.16,1,1,0,0,0,.08,1.25,2.27,2.27,0,0,0,1.27.66,4.38,4.38,0,0,0,3-.42,4.28,4.28,0,0,0,2-2.43,4.18,4.18,0,0,0,.22-1.65,1.63,1.63,0,0,0-.77-1.38,1,1,0,0,0-.78-.08,1,1,0,0,0-.56.57,2.1,2.1,0,0,0,.1,1.68,3.74,3.74,0,0,0,2.78,2.06,4.3,4.3,0,0,0,3.36-1,2.81,2.81,0,0,0,1-1.39,1.17,1.17,0,0,0-.11-.8.79.79,0,0,0-.62-.44,1,1,0,0,0-.75.24,1.35,1.35,0,0,0-.43.68,2.92,2.92,0,0,0,.09,1.63,4,4,0,0,0,5,2.64,2,2,0,0,0,1.07-.92.89.89,0,0,0-.34-1.17,1.43,1.43,0,0,0-1.29,0,2.68,2.68,0,0,0-1,.88A14,14,0,0,0,303,88.39a22.28,22.28,0,0,0-1.39,4.16c-.3,1.26-.48,2.36-.63,3.26s-.24,1.6-.31,2.08c0,.23-.06.41-.08.54Z" style="fill:#263238"></path><path d="M304.26,101.12H292.93a.85.85,0,0,1-.85-.85h0a.85.85,0,0,1,.85-.85h11.33a.85.85,0,0,1,.85.85h0A.85.85,0,0,1,304.26,101.12Z" style="fill:#263238"></path><path d="M304.26,101.86H292.93a.85.85,0,0,0,0,1.7h1.25l1.65,3.14a1.09,1.09,0,0,0,1,.59h4a1.08,1.08,0,0,0,1-.6l1.61-3.13h.84a.85.85,0,0,0,0-1.7Z" style="fill:#263238"></path><g style="opacity:0.2"><path d="M288.83,71.66a11.11,11.11,0,0,1,3-2,8.2,8.2,0,0,1,2.32-.67c.57-.06.9,0,.93.12.06.27-1.08.67-2.62,1.7a13.17,13.17,0,0,0-4.61,5.25,13,13,0,0,0-1,6.91c.2,1.84.63,3,.38,3.1s-.36-.16-.68-.63a7.74,7.74,0,0,1-1-2.21,11.12,11.12,0,0,1-.41-3.59,11.81,11.81,0,0,1,1.05-4.36" style="fill:#fff"></path></g><g style="opacity:0.2"><path d="M298.71,69.75c-1,0-1.8-.27-1.9-.78,0-.25.14-.52.48-.73a2.82,2.82,0,0,1,1.43-.34,2.78,2.78,0,0,1,1.42.36c.34.21.51.48.47.73" style="fill:#fff"></path></g><path d="M301.6,107a7.59,7.59,0,0,1-.77-.24,6.36,6.36,0,0,0-3.83.11,6.32,6.32,0,0,1-.77.29,2.25,2.25,0,0,1,.72-.41,5.46,5.46,0,0,1,1.95-.41,5.35,5.35,0,0,1,2,.3A2.36,2.36,0,0,1,301.6,107Z" style="fill:#455a64"></path><path d="M303.44,103.6c0,.05-2.05.1-4.57.09s-4.58,0-4.58-.09,2-.09,4.58-.09S303.44,103.55,303.44,103.6Z" style="fill:#455a64"></path><path d="M302.73,105a6.78,6.78,0,0,1-1.11.11c-.69,0-1.65.08-2.7.1s-2,0-2.71,0a6,6,0,0,1-1.12-.09,7.4,7.4,0,0,1,1.12,0l2.7,0,2.7,0A6.31,6.31,0,0,1,302.73,105Z" style="fill:#455a64"></path></g><g id="freepik--character-1--inject-283"><path d="M221.79,259.83c2,13.09-4.34,90.39-4.34,90.39l19,20.9L201.72,403.7,183.38,373l9.68-87.9L204.7,233.9S219.94,247.87,221.79,259.83Z" style="fill:#455a64"></path><path d="M101.63,197.31l25.82-.15h8.78l5.93-3.22,46.53,20.92V222l12.18,6.56,10.6,14.66h0l-12.6,54.07-42.47,98L97.82,358.5s-18.73-86.18-18.73-87.12S101.63,197.31,101.63,197.31Z" style="fill:#455a64"></path><path d="M113.49,195.58s-4.92,64.34-10.12,72.82-6.85,11.22-6.85,11.22l-35.82,31-4.3,55.69s.84,7.66-.34,13.54c-.4,2-6.12,9.64-6.62,12.15-4.79,24.1-12.83,68.52-12.83,68.52H191.4l-8-77.27c-2.37-2.33,16.06-89.13,16.06-89.13V227.34l-6-4.11L189,294.13s-8.76,4.37-22.72.27-46-23.82-46-23.82,5.74-55.29,6.84-67.88l.27-5.54Z" style="fill:#e0e0e0"></path><path d="M113.49,195.58l14,1.52h.06v.06c-.1,1.8-.16,3.76-.3,5.89s-.44,4.42-.68,6.87c-.49,4.9-1,10.45-1.65,16.61-1.23,12.33-2.71,27.11-4.4,44.07l-.07-.15c9.13,5.53,19.22,11.42,30.41,17.09,1.4.7,2.81,1.41,4.26,2.08s2.9,1.35,4.38,2a54.86,54.86,0,0,0,9.29,3.24,39.64,39.64,0,0,0,10.06,1.09,29.86,29.86,0,0,0,5.14-.52,21.68,21.68,0,0,0,5-1.47l-.11.16c1.32-21.48,2.79-45.42,4.35-70.89l0-.4.33.22,6,4.11.1.07v.12c0,21.23,0,43.58,0,66.78v.06q-4.44,21.1-8.86,43.43c-1.45,7.44-2.89,15-4.26,22.56-.68,3.81-1.34,7.64-1.94,11.49-.3,1.92-.58,3.86-.82,5.8-.11,1-.23,1.94-.3,2.91,0,.49-.06,1-.07,1.46,0,.23,0,.48,0,.71a1.75,1.75,0,0,0,.05.33l0,.14a.09.09,0,0,1,0,.07l.08.16c2,19.27,4.11,39.57,6.25,60.18q.88,8.59,1.77,17.08l0,.29h-.29l-154.79,0h-.29l0-.28q4.83-25.73,9.32-49.67,1.13-6,2.22-11.83.56-2.94,1.09-5.83c.11-.49.16-1,.3-1.46a9,9,0,0,1,.57-1.39c.45-.88.94-1.73,1.44-2.57l3-4.93a21.67,21.67,0,0,0,1.33-2.51,14.24,14.24,0,0,0,.51-2.75,55.88,55.88,0,0,0,0-11.2v0h0c1.56-20.08,3-38.6,4.32-55.69v-.08l.06-.05,35.84-31,0,0,5.23-8.56A28.43,28.43,0,0,0,104,266.8a36.41,36.41,0,0,0,1.32-4.45c1.39-6,2.2-11.67,3-17,1.47-10.62,2.41-19.71,3.16-27.09s1.25-13.06,1.59-16.89c.16-1.91.29-3.36.38-4.34s.13-1.48.13-1.48,0,.5-.09,1.48-.19,2.43-.34,4.35c-.31,3.83-.79,9.51-1.51,16.9s-1.64,16.48-3.08,27.1c-.75,5.31-1.56,11-2.94,17a36.41,36.41,0,0,1-1.32,4.5,30.09,30.09,0,0,1-2.34,4.22l-5.22,8.57v0h0l-35.8,31,.06-.13c-1.31,17.1-2.73,35.62-4.27,55.7v0a56.13,56.13,0,0,1,0,11.3,15.28,15.28,0,0,1-.53,2.86A22.48,22.48,0,0,1,54.73,383l-3,4.94c-.5.83-1,1.67-1.42,2.53a8.15,8.15,0,0,0-.54,1.32c-.13.44-.19.95-.29,1.43-.36,1.93-.73,3.87-1.09,5.82q-1.1,5.87-2.21,11.84-4.48,23.91-9.29,49.66l-.24-.28,154.79,0-.26.29q-.87-8.49-1.77-17.09c-2.14-20.61-4.25-40.91-6.25-60.18l.08.16a1.35,1.35,0,0,1-.15-.26A1.66,1.66,0,0,1,183,383a1.9,1.9,0,0,1-.05-.4c0-.26,0-.51,0-.76,0-.5,0-1,.08-1.49.07-1,.18-2,.3-2.94.24-1.94.53-3.88.82-5.81.61-3.86,1.27-7.69,1.95-11.5,1.37-7.61,2.81-15.13,4.27-22.56q4.38-22.31,8.87-43.45v.05c0-23.2,0-45.55,0-66.78l.1.19-6-4.11.36-.18c-1.59,25.47-3.07,49.41-4.41,70.9v.12l-.1,0a22.24,22.24,0,0,1-5.1,1.51,32.73,32.73,0,0,1-5.2.52,39.36,39.36,0,0,1-10.15-1.12,54.35,54.35,0,0,1-9.35-3.26c-1.49-.65-3-1.31-4.4-2s-2.86-1.38-4.26-2.09c-11.19-5.69-21.28-11.59-30.41-17.14l-.08,0v-.1c1.73-16.95,3.23-31.73,4.49-44,.63-6.16,1.19-11.71,1.7-16.61.25-2.46.48-4.74.7-6.87s.22-4.09.32-5.88l.06.06Z" style="fill:#263238"></path><path d="M183.24,380.38l-.33,0-1,0-3.7,0c-3.21,0-7.86,0-13.6,0-11.49-.06-27.36-.34-44.89-.73s-33.39-.73-44.88-.89l-13.6-.18-3.7-.06-1,0-.33,0a1.39,1.39,0,0,1,.33,0l1,0,3.7,0c3.21,0,7.86,0,13.6,0,11.49.06,27.36.34,44.89.74s33.39.73,44.88.89l13.6.17,3.7.06,1,0Z" style="fill:#263238"></path><path d="M182.45,371.12l-.33,0-1,0-3.67,0c-3.18,0-7.79,0-13.48,0-11.39-.06-27.12-.33-44.49-.73s-33.1-.72-44.49-.88l-13.48-.17-3.66-.06-1,0-.32,0a1.14,1.14,0,0,1,.32,0l1,0,3.66,0c3.19,0,7.79,0,13.49,0,11.39.06,27.12.34,44.49.73s33.09.73,44.48.89l13.48.17,3.67.06,1,0Z" style="fill:#263238"></path><path d="M189,300.63a3.68,3.68,0,0,1-.71.27c-.48.14-1.17.42-2.1.64a39,39,0,0,1-8,1.27,49.52,49.52,0,0,1-11.93-.77,64.16,64.16,0,0,1-14-4.32c-9.54-4.22-17.23-9.78-22.67-13.82-2.72-2-4.89-3.74-6.38-4.92-.7-.58-1.27-1-1.7-1.38a3.45,3.45,0,0,1-.57-.51,5.33,5.33,0,0,1,.63.43l1.77,1.29,6.47,4.79c5.49,4,13.18,9.46,22.66,13.64a65.24,65.24,0,0,0,13.86,4.33,50.24,50.24,0,0,0,11.83.87,43.09,43.09,0,0,0,7.93-1.09c.93-.19,1.63-.44,2.12-.55A3.76,3.76,0,0,1,189,300.63Z" style="fill:#263238"></path><path d="M166.94,240.76a6,6,0,0,1-.84.58c-.56.37-1.38.91-2.4,1.64a59.37,59.37,0,0,0-7.95,6.77l-.21.21-.13-.26c-2.47-5-5.35-11.39-8.1-18.39a242.83,242.83,0,0,1-7.76-23.14c-.83-3-1.46-5.46-1.86-7.16l-.44-2a5,5,0,0,1-.13-.69,3.33,3.33,0,0,1,.23.67c.13.49.31,1.13.54,1.93.46,1.69,1.14,4.12,2,7.11,1.78,6,4.41,14.19,7.9,23.05,2.74,7,5.58,13.33,8,18.39l-.34-.06a54.92,54.92,0,0,1,8.11-6.67c1.05-.7,1.89-1.21,2.47-1.55A5.4,5.4,0,0,1,166.94,240.76Z" style="fill:#263238"></path><path d="M187.3,231.84a5.66,5.66,0,0,1-.32,1.25l-1,3.34c-.91,2.81-2.2,6.68-3.66,10.95l-1.9,5.51-.14.43L180,253c-1.87-2.44-3.46-4.53-4.57-6l-1.28-1.75a2.72,2.72,0,0,1-.41-.66s.21.18.54.56l1.39,1.67c1.17,1.44,2.81,3.49,4.72,5.9l-.43.07,1.87-5.52c1.46-4.27,2.8-8.12,3.8-10.9l1.21-3.29A6.9,6.9,0,0,1,187.3,231.84Z" style="fill:#263238"></path><path d="M168.3,326.08a7.71,7.71,0,0,0-5.35-3.79c-2.51-.58-5.47-.55-7.15-2.51-1.07-1.24-1.3-3-2.09-4.43a6.37,6.37,0,0,0-11-.28,5,5,0,0,1-1.08,1.52,3.23,3.23,0,0,1-3.24,0,7.64,7.64,0,0,0-3.22-1.05,2.1,2.1,0,0,0-1.88,1.43h0c-2.66,3.44-.92,10.05,3.18,11.49,1.91.67,4.14.52,5.77,1.7,2.9,2.09,2,6.61,3.51,9.86a7,7,0,0,0,13-.87c.66-2.2.44-5,2.38-6.26,1.56-1,3.68-.28,5.38-1C168.59,331,169.28,328.12,168.3,326.08Z" style="fill:#9E5EFF"></path><path d="M224.54,139.27a38.64,38.64,0,0,0-28.6-43.9L194,94.88c-21.22-4.07-36.53,11.67-40,33l-11.82,66.07,29,47.66,14-20.34,3.81-15.44s20.89,2,26.23-18.06C217.72,178.08,221.41,157.73,224.54,139.27Z" style="fill:#ffbe9d"></path><path d="M189.08,205.83a50.29,50.29,0,0,1-24.38-14.38s2.53,16,23,19.31Z" style="fill:#eb996e"></path><path d="M214.17,153.06a3,3,0,0,1-3.5,2.19,2.83,2.83,0,0,1-2.3-3.34,2.94,2.94,0,0,1,3.49-2.19A2.83,2.83,0,0,1,214.17,153.06Z" style="fill:#263238"></path><path d="M217.72,148c-.45.29-2.21-1.87-5.3-2.65s-5.75.2-6-.26c-.12-.21.41-.8,1.58-1.26a8.1,8.1,0,0,1,4.91-.25,7.78,7.78,0,0,1,4.11,2.57C217.79,147.12,217.94,147.88,217.72,148Z" style="fill:#263238"></path><path d="M184.29,147.82a3,3,0,0,1-3.5,2.19,2.82,2.82,0,0,1-2.3-3.33,3,3,0,0,1,3.5-2.2A2.83,2.83,0,0,1,184.29,147.82Z" style="fill:#263238"></path><path d="M187.22,140.89c-.45.28-2.22-1.88-5.3-2.65s-5.75.19-6-.27c-.12-.21.41-.79,1.58-1.26a8.1,8.1,0,0,1,4.91-.25,7.85,7.85,0,0,1,4.11,2.58C187.29,140,187.44,140.76,187.22,140.89Z" style="fill:#263238"></path><path d="M192.63,166.63c0-.18,2,0,5.24.37.81.11,1.6.15,1.87-.36a4.14,4.14,0,0,0,.06-2.47c-.26-2.09-.52-4.29-.81-6.59-1.07-9.37-1.63-17-1.26-17s1.56,7.52,2.63,16.89c.24,2.31.48,4.51.7,6.61a4.73,4.73,0,0,1-.37,3.2,2,2,0,0,1-1.59.82,5.19,5.19,0,0,1-1.39-.15C194.54,167.29,192.59,166.81,192.63,166.63Z" style="fill:#263238"></path><path d="M183,166.46c.51.1-.34,3.45,1.93,6.56s5.93,3.64,5.83,4.12c0,.22-1,.45-2.47.1a8.53,8.53,0,0,1-4.92-3.24,7.54,7.54,0,0,1-1.41-5.45C182.19,167.12,182.77,166.38,183,166.46Z" style="fill:#263238"></path><path d="M191.09,129c-.52.76-3.5-.42-7.24-.9s-6.91-.24-7.2-1.11c-.12-.42.59-1.08,2-1.59a12.62,12.62,0,0,1,11,1.53C190.82,127.79,191.32,128.62,191.09,129Z" style="fill:#263238"></path><path d="M218.85,138.78c-.72.56-2.66-.7-5.21-1.39s-4.84-.72-5.16-1.58c-.12-.41.4-1,1.51-1.45a7.41,7.41,0,0,1,4.54-.08,7.48,7.48,0,0,1,3.82,2.47C219.07,137.7,219.18,138.5,218.85,138.78Z" style="fill:#263238"></path><path d="M236.39,123.54a4,4,0,0,0-3.14-4.19,8.2,8.2,0,0,0,3.15-.63,2.84,2.84,0,0,0,1.72-2.52c-.07-1.68-2-2.55-3.4-3.44a10.67,10.67,0,0,1-4.23-4.94c-1.22-2.92-1.08-6.25-2-9.29a13.77,13.77,0,0,0-19.93-8,14.33,14.33,0,0,0-23.14-2.85,16.72,16.72,0,0,0-27,11.42l10.29,11.11a7,7,0,0,1,9.82-3.53c3.44,2.14,4.62,7.16,8.43,8.55,3,1.08,6.21-.54,9.37-.5,3.83,0,7.19,2.53,9.9,5.24s5.12,5.82,8.45,7.73c3.89,2.24,8.62,2.57,13.08,2.05a13.76,13.76,0,0,0,5.5-1.58A6.08,6.08,0,0,0,236.39,123.54Z" style="fill:#263238"></path><path d="M172.52,104.92l57,15.66c-.79-4.4-3.18-8.37-6-11.85a46.17,46.17,0,0,0-23.61-15.87c-9.3-2.51-31.19,4.1-39.59,8.84-6.71,3.8-7.8,8.27-7.8,8.27-2.73,7.21-.69,16.71-.87,24.42-.09,4-1.31,15.78-1.31,15.78h0c3.16.78,5-1.44,5.27-4.68l2.48-12.4s12.66-4.93,11.08-20.18C168.68,111.59,168.22,106.05,172.52,104.92Z" style="fill:#263238"></path><path d="M173.64,151.42a.39.39,0,1,1,.37-.37A.38.38,0,0,1,173.64,151.42Z" style="fill:#eb996e"></path><path d="M179.87,151.57a.39.39,0,0,1-.32-.46.4.4,0,0,1,.37-.42.41.41,0,0,1,.33.46A.4.4,0,0,1,179.87,151.57Z" style="fill:#eb996e"></path><path d="M183.87,152.48c-.19,0-.31-.3-.28-.61s.23-.55.42-.53.32.3.28.61S184.06,152.51,183.87,152.48Z" style="fill:#eb996e"></path><path d="M175.6,155.85c-.19,0-.32-.18-.29-.3s.21-.18.4-.13.31.18.28.3S175.79,155.9,175.6,155.85Z" style="fill:#eb996e"></path><path d="M181.33,156a.38.38,0,0,1-.29-.45.38.38,0,0,1,.41-.34.38.38,0,0,1,.29.45A.38.38,0,0,1,181.33,156Z" style="fill:#eb996e"></path><path d="M210.34,159.75a.38.38,0,0,1-.33-.42.38.38,0,0,1,.37-.38.38.38,0,0,1,.33.42A.38.38,0,0,1,210.34,159.75Z" style="fill:#eb996e"></path><path d="M214.45,160.4a.41.41,0,0,1-.28-.49c0-.25.22-.42.42-.39a.41.41,0,0,1,.28.49C214.83,160.25,214.64,160.43,214.45,160.4Z" style="fill:#eb996e"></path><path d="M206.76,159a.33.33,0,0,1-.33-.33.35.35,0,0,1,.7,0A.34.34,0,0,1,206.76,159Z" style="fill:#eb996e"></path><path d="M208.72,163.72a.41.41,0,0,1-.13-.8.41.41,0,0,1,.13.8Z" style="fill:#eb996e"></path><path d="M212.33,163.91a.33.33,0,0,1-.16-.43.32.32,0,0,1,.45-.09.33.33,0,0,1,.16.43A.33.33,0,0,1,212.33,163.91Z" style="fill:#eb996e"></path><path d="M157.47,132c-.06-10.89.31-22.44,6.21-31.6L162,99.89l-.85.32a8.27,8.27,0,0,0-12.4,9.75,7.15,7.15,0,0,0-8.6,4.08c-.87,2.26-.49,4.79,0,7.17s.95,4.85.32,7.18-2.85,4.45-5.24,4.07a5.93,5.93,0,0,0,5.57,4.95,11.72,11.72,0,0,1-5.29,3.83c3,3.57,8.33,4.13,12.91,3.3,2.72-.49,5.53-1.49,7.21-3.69C157.45,138.41,157.49,135.1,157.47,132Z" style="fill:#263238"></path><path d="M153.24,143.52c-.3-.24-12.77-7.59-15.81,6.26s11.49,14.05,11.6,13.66S153.24,143.52,153.24,143.52Z" style="fill:#ffbe9d"></path><path d="M147.16,157.56c0-.05-.28.12-.73.22a2.49,2.49,0,0,1-1.81-.36c-1.34-.86-2.07-3.45-1.58-6a8.23,8.23,0,0,1,1.43-3.31,2.86,2.86,0,0,1,2.22-1.45,1.25,1.25,0,0,1,1.28,1c.1.43-.05.69,0,.73s.35-.17.36-.77a1.48,1.48,0,0,0-.35-1,1.84,1.84,0,0,0-1.26-.65,3.48,3.48,0,0,0-3,1.59,8.43,8.43,0,0,0-1.68,3.68c-.53,2.81.33,5.74,2.2,6.75a2.63,2.63,0,0,0,2.29.12C147.06,157.89,147.2,157.6,147.16,157.56Z" style="fill:#eb996e"></path><path d="M142.27,128.24c-.05,0-.24-.62.19-1.66a5.32,5.32,0,0,1,3.55-2.84c1.93-.54,4.28-.14,6.67.25s5.16.48,7.11-1.41a11.74,11.74,0,0,0,3.07-6.86c.32-2.38.3-4.63.5-6.5.3-3.81,1.63-5.92,1.74-5.82a27.64,27.64,0,0,0-1,5.88c-.1,1.84,0,4.06-.27,6.58a12.36,12.36,0,0,1-3.34,7.53,7,7,0,0,1-4,1.83,13.68,13.68,0,0,1-4-.23c-2.44-.46-4.59-.88-6.33-.49a5.12,5.12,0,0,0-3.34,2.27A11.79,11.79,0,0,0,142.27,128.24Z" style="fill:#455a64"></path><path d="M140.65,121.37c-.06,0-.19-.48-.08-1.35a6.12,6.12,0,0,1,1.67-3.32,6.33,6.33,0,0,1,2.16-1.49,7.38,7.38,0,0,1,3-.49,7.77,7.77,0,0,0,2.89-.33,3.26,3.26,0,0,0,1.73-2.21c.33-1,.48-2.16.81-3.25a16.8,16.8,0,0,1,1.22-3,15.62,15.62,0,0,1,3.32-4.32,3.92,3.92,0,0,1,3.56-1.07c.9.26,1.16.77,1.11.8s-.41-.28-1.19-.38a3.57,3.57,0,0,0-2.95,1.23,16.77,16.77,0,0,0-4,7c-.3,1-.43,2.12-.8,3.29a4.32,4.32,0,0,1-2.36,2.87,8.37,8.37,0,0,1-3.31.35,5.87,5.87,0,0,0-4.58,1.52C140.66,119.29,140.85,121.43,140.65,121.37Z" style="fill:#455a64"></path><path d="M230.5,107.84c.08,0-1.24.45-2.79-.89a8.4,8.4,0,0,1-2-2.91,11.57,11.57,0,0,0-2.38-3.7,9.85,9.85,0,0,0-10.47-2.21c-2,.75-4,2-6.36,2.92a9.15,9.15,0,0,1-3.86.62,7.68,7.68,0,0,1-3.77-1.46c-2.21-1.57-3.73-3.62-5.63-5a17.84,17.84,0,0,0-6.08-3,17.59,17.59,0,0,0-11.32.65,19.53,19.53,0,0,0-6.48,4.34c-1.29,1.35-1.87,2.22-1.95,2.17s.09-.26.34-.69A15.93,15.93,0,0,1,169.1,97a18.38,18.38,0,0,1,6.49-4.77,18,18,0,0,1,11.88-.91,18.65,18.65,0,0,1,6.46,3.06c2.06,1.48,3.61,3.54,5.62,5a6.47,6.47,0,0,0,3.24,1.27,8.08,8.08,0,0,0,3.39-.54c2.2-.79,4.21-2.07,6.38-2.85a10.3,10.3,0,0,1,6.51-.3,10.9,10.9,0,0,1,4.87,2.92,11.67,11.67,0,0,1,2.38,4,8.25,8.25,0,0,0,1.69,2.85A4,4,0,0,0,230.5,107.84Z" style="fill:#455a64"></path><path d="M162.79,176.31c-.65-.2-.63-1.24-.08-1.64a2.09,2.09,0,0,1,1.95-.06,7.77,7.77,0,0,0,1.92.65c.68.07,1.52-.11,1.95.43.58.73-.31,1.71-.53,2.62a4.54,4.54,0,0,0,.54,2.54,2.4,2.4,0,0,1-.12,2.5,1.93,1.93,0,0,1-1.87.4,12.56,12.56,0,0,1-1.86-.77c-1.53-.64-3.45-.81-4.35-2.2a2.54,2.54,0,0,1,2.27-3.93" style="fill:#9E5EFF"></path><g style="opacity:0.30000000000000004"><path d="M180.93,410.55C173.36,400,165.58,389.3,155,381.82c-13.19-9.32-29.53-12.77-45.36-16S72,358.13,56,354.86l.91,14.43c5.19,5.7,11.23,7.44,18.75,9.13s15.27,2.08,22.91,3.14c27.24,3.76,52.72,16.12,75.19,32,1.44,1,3,2.07,4.71,2.17s3.69-1.25,3.54-3A4.63,4.63,0,0,0,180.93,410.55Z"></path></g><g style="opacity:0.30000000000000004"><path d="M82.69,328.57c2.48,1.38,5.48-1.15,6.37-3.85s.7-5.73,2-8.23c1.49-2.78,4.54-4.31,6.63-6.66,2.71-3,3.68-7.23,3.94-11.28s-.09-8.13.39-12.16c.8-6.66,3.85-12.8,6.09-19.12a25.21,25.21,0,0,0-.28-18.48c-4.66,30.57-8.76,22.13-10.3,29.63s-.22,4.53-1.31,12.11c-2.06,14.38-12.62,18.39-20.56,30.55Z"></path></g><polygon points="144.65 361.92 96.63 340.67 81.14 371.12 145.28 384.48 144.65 361.92" style="fill:#ffbe9d"></polygon><path d="M101.63,197.31c-1.41,0-29-3.28-39.35,20.61s-25.76,81.5-25.76,81.5-6.22,4.83-4.59,10S36,316.75,36,316.75a17.26,17.26,0,0,0-4.35,16.58s-3.26,15.5,9.24,26.37l9.79,4.89s10.6,3.54,13.05,3,12,7.89,16.85,4.63l16-31.54s-9.52-9.51-13.87-12,.28-1.36.28-1.36a11.37,11.37,0,0,0,4.62-9.51c-.27-6.25-1.63-6.25-1.63-6.25s9.24-4.62,9.24-9.25,6.36-41.23,6.36-41.23" style="fill:#455a64"></path><path d="M101.63,261.11s0,.33-.14,1-.26,1.59-.46,2.81c-.4,2.49-1,6.13-1.77,10.83s-1.7,10.47-2.69,17.18c-.25,1.68-.5,3.42-.72,5.22-.13.9-.22,1.81-.32,2.74,0,.47-.06.93-.09,1.4a5.23,5.23,0,0,1-.27,1.46,7.48,7.48,0,0,1-1.56,2.53,16.85,16.85,0,0,1-2.21,2.09,33.3,33.3,0,0,1-5.29,3.42L86,311.4a.89.89,0,0,1,.55.36,2.66,2.66,0,0,1,.3.47,5.42,5.42,0,0,1,.37,1,15,15,0,0,1,.4,2.1,18.88,18.88,0,0,1,.11,4.39,11.52,11.52,0,0,1-4.61,7.78l-.07.05-.09,0a11.72,11.72,0,0,0-1.3-.21,1.89,1.89,0,0,0-.59,0s0,0,0,0,0,0,0,0a1.65,1.65,0,0,0,.19.2,25.23,25.23,0,0,0,2.3,1.46,47.5,47.5,0,0,1,4.5,3.48c2.92,2.5,5.8,5.21,8.68,8.05l.12.12-.08.15-16,31.54,0,.06,0,0a5.6,5.6,0,0,1-3.85.73,14.88,14.88,0,0,1-3.76-1.09c-2.41-1-4.67-2.37-7-3.53a9,9,0,0,0-1.78-.67,2.88,2.88,0,0,0-.92,0,6,6,0,0,1-1,0,31.22,31.22,0,0,1-4-.75c-2.61-.65-5.2-1.43-7.79-2.27h0l-9.78-4.9h0l0,0a28.34,28.34,0,0,1-7.66-10.82,30.11,30.11,0,0,1-1.87-7.83,29.13,29.13,0,0,1,.2-8v.12a17.37,17.37,0,0,1,0-9.08,17.81,17.81,0,0,1,4.44-7.76v.38a15.63,15.63,0,0,1-2.92-4.31,24.24,24.24,0,0,1-1-2.38,8.11,8.11,0,0,1-.37-1.24,5.64,5.64,0,0,1-.16-1.3,8.67,8.67,0,0,1,1.6-4.8,16.82,16.82,0,0,1,3.35-3.69l-.09.14c5.08-18.63,10.13-35.88,15-51.23,2.46-7.67,4.88-14.86,7.34-21.47,1.23-3.3,2.48-6.45,3.79-9.43a33.79,33.79,0,0,1,5-7.89,32.6,32.6,0,0,1,12.84-9.13,43.93,43.93,0,0,1,11.47-2.81,51.46,51.46,0,0,1,7.39-.26c1.68.07,2.55.17,2.55.17s-.22,0-.65,0l-1.9-.07a52.2,52.2,0,0,0-7.37.34,44,44,0,0,0-11.4,2.86,32.38,32.38,0,0,0-12.69,9.11,33.73,33.73,0,0,0-4.89,7.83c-1.29,3-2.53,6.12-3.75,9.42-2.44,6.61-4.84,13.8-7.28,21.47-4.85,15.35-9.88,32.6-14.94,51.23l0,.07-.06.06a16.17,16.17,0,0,0-3.24,3.56,8.19,8.19,0,0,0-1.51,4.53,4.36,4.36,0,0,0,.15,1.19,6.6,6.6,0,0,0,.35,1.18,22.31,22.31,0,0,0,1,2.33,15.31,15.31,0,0,0,2.8,4.15l.19.19-.19.19a17.25,17.25,0,0,0-4.29,7.51,16.81,16.81,0,0,0,0,8.82v.12a28.64,28.64,0,0,0-.2,7.8,30.66,30.66,0,0,0,1.84,7.7,27.86,27.86,0,0,0,7.52,10.62l0,0,9.78,4.89h0c2.58.84,5.16,1.62,7.75,2.26a31.68,31.68,0,0,0,3.89.74,7.65,7.65,0,0,0,1,0,3.36,3.36,0,0,1,1.06,0,8.86,8.86,0,0,1,1.91.71c2.38,1.18,4.61,2.54,7,3.53A14.82,14.82,0,0,0,77,372.64a5.09,5.09,0,0,0,3.5-.64l-.08.09C86,361,91.46,350.32,96.43,340.57l0,.26c-2.87-2.83-5.74-5.55-8.64-8a44.32,44.32,0,0,0-4.45-3.45A23.29,23.29,0,0,1,81,327.83a1.62,1.62,0,0,1-.27-.3.45.45,0,0,1-.05-.33A.38.38,0,0,1,81,327a2,2,0,0,1,.76,0,11.69,11.69,0,0,1,1.36.23l-.16,0a11.2,11.2,0,0,0,4.46-7.48,18.71,18.71,0,0,0-.11-4.3,13.74,13.74,0,0,0-.38-2,5.94,5.94,0,0,0-.34-1,1.33,1.33,0,0,0-.52-.63l-.51-.13.42-.22a32.8,32.8,0,0,0,5.24-3.36,16.87,16.87,0,0,0,2.17-2,7.28,7.28,0,0,0,1.51-2.42,12,12,0,0,0,.35-2.78c.1-.93.2-1.85.33-2.75.23-1.8.49-3.54.74-5.22,1-6.71,2-12.47,2.78-17.18l1.87-10.8c.22-1.23.39-2.16.51-2.8S101.63,261.11,101.63,261.11Z" style="fill:#263238"></path><path d="M73.49,350.53a77.43,77.43,0,0,1-3.75,8.11,74.9,74.9,0,0,1-4.22,7.88,81.57,81.57,0,0,1,3.76-8.11A78.41,78.41,0,0,1,73.49,350.53Z" style="fill:#263238"></path><path d="M52.51,318.2a17.11,17.11,0,0,1-2.53-.28c-1.55-.21-3.69-.45-6.07-.58s-4.54-.11-6.1-.07a15.06,15.06,0,0,1-2.55,0,10.56,10.56,0,0,1,2.53-.38,46.56,46.56,0,0,1,12.25.65A9.87,9.87,0,0,1,52.51,318.2Z" style="fill:#263238"></path><path d="M49.59,301.72a42.09,42.09,0,0,0-6.38-2,42.2,42.2,0,0,0-6.68-.45,6,6,0,0,1,2-.35,19,19,0,0,1,9.39,1.78A5.94,5.94,0,0,1,49.59,301.72Z" style="fill:#263238"></path><path d="M75.7,297.89A8.16,8.16,0,0,1,78,299.07a22.81,22.81,0,0,1,4.69,4,23.14,23.14,0,0,1,3.45,5.11,8.14,8.14,0,0,1,.91,2.39,39,39,0,0,0-4.75-7.16A39,39,0,0,0,75.7,297.89Z" style="fill:#263238"></path><path d="M175.14,367.24s5,6.5,7.75,8.28,8.88,7.37,8.47,9.46-5.71,3.54-7.29,2.76-6.5-3.75-6.5-3.75,2.17,6.9,3.15,7.29,19.33,15.32,19.33,15.32,3.75,5.52,0,7.09c0,0,1.38,5.52-.59,7.89H196.9L174,408.2,162.79,398S143,386.21,142.88,384c-.14-2,1.77-22.07,1.77-22.07s17.35,2.76,18.53,2.56S170.87,362.9,175.14,367.24Z" style="fill:#ffbe9d"></path><path d="M177.61,384.48c-.12.1-1.59-1.49-3.64-3.2s-3.85-2.9-3.78-3a13.46,13.46,0,0,1,4.12,2.63A13.32,13.32,0,0,1,177.61,384.48Z" style="fill:#eb996e"></path><path d="M170.94,394.52a7.13,7.13,0,0,1-4.07-1.72,7.23,7.23,0,0,1-2.72-3.5,28.25,28.25,0,0,0,3,3.09A27.09,27.09,0,0,0,170.94,394.52Z" style="fill:#eb996e"></path><path d="M200.44,414.13a6.72,6.72,0,0,1-1.18-.62c-.75-.42-1.82-1.05-3.14-1.84-2.64-1.58-6.26-3.8-10.18-6.38s-7.38-5.05-9.82-6.92c-1.22-.94-2.19-1.72-2.85-2.27a6.18,6.18,0,0,1-1-.91,7.88,7.88,0,0,1,1.11.75l2.94,2.13c2.49,1.8,6,4.22,9.89,6.79s7.5,4.84,10.08,6.5l3.05,2A6.23,6.23,0,0,1,200.44,414.13Z" style="fill:#eb996e"></path><path d="M187.28,378.78a1.49,1.49,0,0,0-.95,1.55,10,10,0,0,0,.47,1.9,2.17,2.17,0,0,1-.2,1.88c-.44.57-1.31.72-1.69,1.33A1.46,1.46,0,0,0,185,387a2.54,2.54,0,0,0,1.3.92,4.13,4.13,0,0,0,5-2.23,2.58,2.58,0,0,0-.35-2.75,11.06,11.06,0,0,0-3.63-4.13" style="fill:#9E5EFF"></path><path d="M258.94,425.24s2.51.55,3.62-.7a2.41,2.41,0,0,0,.14-2.79l1.54-2.23a3.24,3.24,0,0,0-.14-4,3.71,3.71,0,0,0,3.62-2.51c1.26-2.79-1.11-5.44-1.11-5.44s3.2-2.23,3.06-5-5.57-4.74-7.25-6.92a12.49,12.49,0,0,0-3.48-3.17s.56-.78,3.76,1.17,4.46,2,4.46,2c3.91-1.06,4.47-4.23,2.51-5.76a26.7,26.7,0,0,1-4-4.46L255,382.16a23.6,23.6,0,0,0-7,2.1,82.7,82.7,0,0,0-7.81,4.75l-11.41-17.89-18.93,15.54-6.6,7.86,26.62,19.56s1.81,3.12,2.94,4.61S258.94,425.24,258.94,425.24Z" style="fill:#ffbe9d"></path><path d="M109.85,467.87c0-1.61,2.35-11.79,3.92-14.14s8.35-4.17,8.35-4.17,7-11.7,11.22-11.59c3.18.08,14.69,2.67,20,3.9a4.86,4.86,0,0,1,3.52,3.29l6.94,22.71Z" style="fill:#9E5EFF"></path><path d="M96.62,474.29s3.61-4.14,4.21-4.29c.3-.08,2-.71,3.57-1.32a3.18,3.18,0,0,1,4.14,1.91l1.31,3.7Z" style="fill:#9E5EFF"></path><path d="M203.73,449.29a5.84,5.84,0,0,1-1.35,0,21.66,21.66,0,0,1-3.67-.56,24.71,24.71,0,0,1-17.63-15.63,21.37,21.37,0,0,1-1-3.57,5.81,5.81,0,0,1-.17-1.35c.11,0,.36,1.91,1.5,4.79a25.59,25.59,0,0,0,17.38,15.41C201.8,449.16,203.74,449.18,203.73,449.29Z" style="fill:#263238"></path><path d="M202.35,444.42a4.42,4.42,0,0,1-1-.17,19.66,19.66,0,0,1-2.69-.83,26.62,26.62,0,0,1-3.78-1.79,26.73,26.73,0,0,1-7.71-6.7,25.14,25.14,0,0,1-2.31-3.49,19.13,19.13,0,0,1-1.19-2.55,3.9,3.9,0,0,1-.32-1c.09,0,.63,1.33,1.83,3.35a29,29,0,0,0,2.36,3.38,28.89,28.89,0,0,0,7.58,6.58,29.75,29.75,0,0,0,3.67,1.87C200.94,444,202.37,444.32,202.35,444.42Z" style="fill:#263238"></path><path d="M294.47,468c0,5.77-27.41,10.45-61.23,10.45s-62.08-4.88-62.08-10.65c0-.86.3-7.62.3-7.62,6.54-4.57,33-2.62,61.78-2.62,28.45,0,53.48-2.08,60.37,2.4C293.61,459.93,294.47,467.06,294.47,468Z" style="fill:#263238"></path><ellipse cx="232.38" cy="461.19" rx="61.22" ry="10.44" style="fill:#455a64"></ellipse><path d="M264.16,399a35.27,35.27,0,1,0-50.3,31.91v8.89h30.91s.19-5,.26-9.45A35.25,35.25,0,0,0,264.16,399Z" style="fill:#9E5EFF"></path><g style="opacity:0.30000000000000004"><path d="M233.6,439.63s0-.15,0-.44.08-.72.14-1.27c.14-1.12.34-2.77.65-4.88s.73-4.7,1.4-7.67a53.23,53.23,0,0,1,3.2-9.81,34.08,34.08,0,0,1,2.9-5.28,6.54,6.54,0,0,1,2.41-2.16,3.61,3.61,0,0,1,3.35.1,2.44,2.44,0,0,1,1,3.21,5,5,0,0,1-2.72,2.35,9.69,9.69,0,0,1-12.31-6.41,7.36,7.36,0,0,1-.21-4.06,3.15,3.15,0,0,1,3.2-2.45,2.25,2.25,0,0,1,1.8,1.24,3.2,3.2,0,0,1,.28,2.17,6.85,6.85,0,0,1-2.48,3.51,10.47,10.47,0,0,1-8.22,2.38,9.16,9.16,0,0,1-6.82-5.08,5.34,5.34,0,0,1-.24-4.27,2.71,2.71,0,0,1,1.55-1.56,2.61,2.61,0,0,1,2.17.2,3.46,3.46,0,0,1,1.49,1.54,5.52,5.52,0,0,1,.54,2,10.15,10.15,0,0,1-.54,4,10.49,10.49,0,0,1-5,5.91,10.68,10.68,0,0,1-7.3,1,5.58,5.58,0,0,1-3.17-1.69,2.74,2.74,0,0,1-.2-3.4,2.3,2.3,0,0,1,1.59-.77,3.33,3.33,0,0,1,1.68.33,5,5,0,0,1,2.16,2.42c.88,1.91,1.6,3.77,2.32,5.54,2.82,7.11,4.82,13,6.16,17,.67,2,1.16,3.61,1.49,4.69l.37,1.22c.08.28.11.42.11.42a4.06,4.06,0,0,1-.15-.41c-.1-.28-.23-.69-.41-1.21-.36-1.08-.89-2.65-1.57-4.66-1.39-4-3.43-9.88-6.29-17-.72-1.76-1.45-3.64-2.33-5.51a4.76,4.76,0,0,0-2-2.26,2.41,2.41,0,0,0-2.84.36,2.37,2.37,0,0,0,.2,2.93,5.16,5.16,0,0,0,3,1.55,10.29,10.29,0,0,0,7-1,10.09,10.09,0,0,0,4.77-5.7,9.68,9.68,0,0,0,.51-3.86,3.81,3.81,0,0,0-1.81-3.24,2.2,2.2,0,0,0-1.82-.17,2.26,2.26,0,0,0-1.3,1.32,5,5,0,0,0,.23,3.93,8.75,8.75,0,0,0,6.5,4.84,10.13,10.13,0,0,0,7.88-2.29,6.53,6.53,0,0,0,2.33-3.27,2.77,2.77,0,0,0-.24-1.88,1.86,1.86,0,0,0-1.46-1,2.49,2.49,0,0,0-1.75.56,3.09,3.09,0,0,0-1,1.58,7,7,0,0,0,.2,3.83,9.39,9.39,0,0,0,4.76,5.65,9.26,9.26,0,0,0,7,.52,4.61,4.61,0,0,0,2.53-2.15,2.09,2.09,0,0,0-.82-2.74,3.32,3.32,0,0,0-3-.1,6.18,6.18,0,0,0-2.29,2.05,34.08,34.08,0,0,0-2.89,5.2,53.39,53.39,0,0,0-3.24,9.75c-.69,2.95-1.13,5.53-1.47,7.63s-.56,3.74-.73,4.87c-.08.54-.14,1-.19,1.27S233.6,439.63,233.6,439.63Z"></path></g><path d="M242.39,447.24H215.85a2,2,0,0,0,0,4h2.92l3.86,7.36a2.56,2.56,0,0,0,2.27,1.36h9.48a2.55,2.55,0,0,0,2.28-1.39l3.75-7.33h2a2,2,0,1,0,0-4Z" style="fill:#9E5EFF"></path><path d="M213.86,439.77c-2.14.7-6.25,6.29-5.79,10.53.43,3.92,2.14,8.16,2.77,8.23a6.43,6.43,0,0,0-5.59,7.61l41.35-.61-1.83-25.76Z" style="fill:#9E5EFF"></path><path d="M244.31,440.16H213.47a1.58,1.58,0,0,1-1.58-1.58h0a1.58,1.58,0,0,1,1.58-1.58h30.84a1.58,1.58,0,0,1,1.58,1.58h0A1.58,1.58,0,0,1,244.31,440.16Z" style="fill:#9E5EFF"></path><path d="M244.48,437.13H213.63a1.58,1.58,0,0,1-1.58-1.58h0a1.58,1.58,0,0,1,1.58-1.58h30.85a1.57,1.57,0,0,1,1.57,1.58h0A1.57,1.57,0,0,1,244.48,437.13Z" style="fill:#9E5EFF"></path><path d="M244.79,438.58c.2.9,1.78,13.82,2,14.72a5.41,5.41,0,0,1,6.64-.15,8.48,8.48,0,0,1,3.19,6.2,7.15,7.15,0,0,1,11.49,5.92h-24.5Z" style="fill:#9E5EFF"></path><g style="opacity:0.30000000000000004"><path d="M243.56,434.06c0,.14-6.58.26-14.71.26s-14.71-.12-14.71-.26,6.59-.26,14.71-.26S243.56,433.92,243.56,434.06Z"></path></g><g style="opacity:0.30000000000000004"><path d="M243.93,437.12c0,.14-6.58.26-14.71.26s-14.71-.12-14.71-.26,6.59-.26,14.71-.26S243.93,437,243.93,437.12Z"></path></g><g style="opacity:0.30000000000000004"><path d="M244.3,440.17c0,.15-6.58.26-14.71.26s-14.71-.11-14.71-.26,6.59-.26,14.71-.26S244.3,440,244.3,440.17Z"></path></g><g style="opacity:0.30000000000000004"><path d="M246.6,465.53a7.27,7.27,0,0,0-1.69-2.2,6.46,6.46,0,0,0-2.83-1.37,5.66,5.66,0,0,0-4,.55l-.33.19v-.38a8.62,8.62,0,0,0-1.46-4.67,8.21,8.21,0,0,0-4.33-3.32,8.69,8.69,0,0,0-6.55.47L225,455l.05-.46a11.54,11.54,0,0,0-.72-5.5,12.08,12.08,0,0,0-2.3-3.76,16.14,16.14,0,0,0-3-2.53,4.17,4.17,0,0,1,1,.46,11.25,11.25,0,0,1,2.31,1.86,12.11,12.11,0,0,1,2.45,3.82,11.68,11.68,0,0,1,.83,5.71l-.36-.25a9.12,9.12,0,0,1,6.94-.53,8.7,8.7,0,0,1,4.59,3.54,9.1,9.1,0,0,1,1.49,4.95l-.33-.2a6,6,0,0,1,4.25-.51,6.51,6.51,0,0,1,2.92,1.52,5.39,5.39,0,0,1,1.28,1.69A3.15,3.15,0,0,1,246.6,465.53Z"></path></g><path d="M212.93,370.22c0,.08-1.32,1-3.31,2.66a35.35,35.35,0,0,0-3.28,3.19,40.13,40.13,0,0,0-3.44,4.42,41.58,41.58,0,0,0-2.73,4.9,36.16,36.16,0,0,0-1.65,4.27c-.79,2.49-1.06,4.1-1.16,4.08a5.31,5.31,0,0,1,.12-1.14,25.25,25.25,0,0,1,.68-3.05,33,33,0,0,1,1.58-4.36,37.68,37.68,0,0,1,2.72-5,38.17,38.17,0,0,1,3.52-4.45,33.46,33.46,0,0,1,3.41-3.16,23.75,23.75,0,0,1,2.53-1.81A4.81,4.81,0,0,1,212.93,370.22Z" style="fill:#fff"></path><path d="M265.44,399.27a5.43,5.43,0,0,0-3.37,8.46,4.55,4.55,0,0,0-3.16,6.95,2.46,2.46,0,0,0-3,3.63,2.81,2.81,0,0,0-3.11,2.29c-.21,1.42.24,3.52,1.66,3.7l4.5.94,5.7-13.46,2.58-9Z" style="fill:#ffbe9d"></path><g style="opacity:0.30000000000000004"><path d="M240.6,443.05a22.27,22.27,0,0,0-4.16,5.31,3.26,3.26,0,0,1-1,1.12,2.93,2.93,0,0,1-1.31.45,8.44,8.44,0,0,1-2.22-.13,16.82,16.82,0,0,0-2-.13,3.2,3.2,0,0,1,2-.24,9.85,9.85,0,0,0,2.12,0,2.67,2.67,0,0,0,1.08-.4,2.86,2.86,0,0,0,.81-1,14.11,14.11,0,0,1,3-3.88A5,5,0,0,1,240.6,443.05Z"></path></g><path d="M262.59,431.92a1.72,1.72,0,0,1,.28.68,7.44,7.44,0,0,1,.29,2,8.86,8.86,0,0,1-8.05,9.07,8.12,8.12,0,0,1-2-.06,1.8,1.8,0,0,1-.71-.2,22.5,22.5,0,0,0,2.66-.11,8.93,8.93,0,0,0,7.73-8.7A23.37,23.37,0,0,0,262.59,431.92Z" style="fill:#263238"></path><path d="M266.5,425.25a4.13,4.13,0,0,1,1,.67,9.07,9.07,0,0,1,2.1,2.52,11.38,11.38,0,0,1,1.48,4.64,11.86,11.86,0,0,1-.92,5.9,13.07,13.07,0,0,1-3.67,4.7,14.6,14.6,0,0,1-4.24,2.41,14,14,0,0,1-3.18.79,4.16,4.16,0,0,1-1.19.05,26.42,26.42,0,0,0,4.24-1.18,15.23,15.23,0,0,0,4.06-2.44,12.92,12.92,0,0,0,3.5-4.54,11.76,11.76,0,0,0-.4-10.15A13.22,13.22,0,0,0,266.5,425.25Z" style="fill:#263238"></path></g></svg>