<?xml version="1.0" encoding="iso-8859-1"?>
<!-- Generator: Adobe Illustrator 19.0.0, SVG Export Plug-In . SVG Version: 6.00 Build 0)  -->
<svg version="1.1" id="Layer_1" xmlns="http://www.w3.org/2000/svg" xmlns:xlink="http://www.w3.org/1999/xlink" x="0px" y="0px"
	 viewBox="0 0 512 512" style="enable-background:new 0 0 512 512;" xml:space="preserve">
<g>
	<g>
		<path d="M434.443,444.708H15.208V262.719c0-4.199-3.405-7.604-7.604-7.604S0,258.52,0,262.719v189.592
			c0,4.199,3.405,7.604,7.604,7.604h426.839c4.199,0,7.604-3.405,7.604-7.604S438.643,444.708,434.443,444.708z"/>
	</g>
</g>
<g>
	<g>
		<path d="M504.396,179.076H362.515l-79.71-79.71c7.184-11.999,5.616-27.816-4.712-38.145c-12.182-12.183-32.004-12.183-44.186,0
			c-10.328,10.328-11.896,26.145-4.712,38.145l-79.71,79.71H7.604C3.405,179.076,0,182.48,0,186.68v50.693
			c0,4.199,3.405,7.604,7.604,7.604s7.604-3.405,7.604-7.604v-43.089h481.584v250.424h-37.003c-4.199,0-7.604,3.405-7.604,7.604
			s3.405,7.604,7.604,7.604h44.607c4.199,0,7.604-3.405,7.604-7.604V186.68C512,182.48,508.595,179.076,504.396,179.076z
			 M244.66,71.976c3.126-3.126,7.233-4.689,11.34-4.689c4.107,0,8.213,1.563,11.34,4.689c6.253,6.253,6.253,16.427,0,22.679
			c-6.252,6.253-16.427,6.253-22.679,0C238.409,88.402,238.407,78.228,244.66,71.976z M170.993,179.077l68.956-68.957
			c4.922,2.947,10.486,4.424,16.051,4.424c5.565,0,11.129-1.478,16.051-4.424l68.957,68.957H170.993z"/>
	</g>
</g>
<g>
	<g>
		<path d="M162.937,356.083H126.38v-25.964h19.635c3.617,0,5.296-3.489,5.296-6.459c0-3.487-1.938-6.717-5.296-6.717H126.38h0
			v-25.836h36.557c3.359,0,5.296-3.488,5.296-7.492c0-3.488-1.679-7.234-5.296-7.234H116.95c-3.747,0-7.364,1.809-7.364,5.296
			v83.836c0,3.488,3.617,5.296,7.364,5.296h45.987c3.617,0,5.296-3.746,5.296-7.234C168.233,359.57,166.296,356.083,162.937,356.083
			z"/>
	</g>
</g>
<g>
	<g>
		<path d="M263.306,359.96l-22.348-36.428l21.573-36.299c0.775-1.292,1.162-2.454,1.162-3.616c0-4.521-5.942-7.88-10.722-7.88
			c-2.712,0-4.392,1.42-5.684,3.616l-17.568,31.649l-17.568-31.649c-1.163-2.196-2.972-3.616-5.555-3.616
			c-4.779,0-10.722,3.359-10.722,7.88c0,1.163,0.387,2.325,1.162,3.616l21.573,36.299l-22.348,36.428
			c-0.647,1.163-1.034,2.196-1.034,3.1c0,4.651,6.459,8.397,10.98,8.397c2.067,0,3.746-1.163,4.651-2.713l18.86-33.199
			l18.991,33.199c0.775,1.55,2.454,2.713,4.521,2.713c4.651,0,10.98-3.747,10.98-8.397
			C264.21,362.156,263.952,361.123,263.306,359.96z"/>
	</g>
</g>
<g>
	<g>
		<path d="M305.411,276.382c-4.263,0-8.397,1.55-8.397,5.167v83.965c0,3.488,4.134,5.296,8.397,5.296
			c4.134,0,8.397-1.809,8.397-5.296v-83.965C313.807,277.932,309.544,276.382,305.411,276.382z"/>
	</g>
</g>
<g>
	<g>
		<path d="M404.268,276.382h-54.641c-3.617,0-5.296,3.876-5.296,7.492c0,4.134,1.938,7.621,5.296,7.621h18.989v74.019
			c0,3.488,4.134,5.296,8.396,5.296c4.134,0,8.397-1.809,8.397-5.296v-74.019h18.86c3.359,0,5.296-3.616,5.296-7.621
			C409.565,280.257,407.885,276.382,404.268,276.382z"/>
	</g>
</g>
<g>
</g>
<g>
</g>
<g>
</g>
<g>
</g>
<g>
</g>
<g>
</g>
<g>
</g>
<g>
</g>
<g>
</g>
<g>
</g>
<g>
</g>
<g>
</g>
<g>
</g>
<g>
</g>
<g>
</g>
</svg>
