<svg height="512" viewBox="0 0 60 60" width="512" xmlns="http://www.w3.org/2000/svg"><g id="Page-1" fill="none" fill-rule="evenodd"><g id="034---Hot-Dog-and-Soda" fill="rgb(0,0,0)" fill-rule="nonzero"><path id="Shape" d="m20.392 23.454c.3198474.5670172.3528473 1.2518567.089 1.847l-.994 2.217c-.7599412 1.6929682-.2710956 3.6858592 1.186 4.835l1.908 1.5c.5091253.4058538.7967777 1.0282357.776 1.679l-.093 3.016c-.0758177 2.0312099 1.3790358 3.7983393 3.387 4.114l.624.094c.8013495.1285034 1.4443721.7307682 1.625 1.522l.946 3.854c.1314438.5365446.6729554.8649438 1.2095.7335s.8649438-.6729554.7335-1.2095l-.945-3.856c-.3750431-1.5780187-1.668879-2.7714162-3.272-3.018l-.624-.094c-1.005708-.1650991-1.7293453-1.0557958-1.685-2.074l.093-3.016c.0394814-1.2842779-.5299535-2.511751-1.536-3.311l-1.907-1.506c-.7297365-.5860824-.9756913-1.5887579-.6-2.446l.994-2.217c.5215601-1.1743194.4577948-2.5259958-.172-3.646l-1.479-2.63c-.5114591-.8816403-.2824472-2.0065053.533-2.618l.51-.373c1.3062551-.9606916 1.8995266-2.617501 1.5-4.189l-.946-3.855c-.0852078-.34708352-.34911-.62234408-.6922971-.72209368-.343187-.0997496-.7135207-.00883392-.9715.2385-.2579792.24733392-.3644107.61351016-.2792029.96059368l.947 3.854c.204881.7852004-.0875349 1.6161519-.739 2.1l-.511.372c-1.6343432 1.208979-2.1068143 3.4489216-1.1 5.215z"/><circle id="Oval" cx="41" cy="54" r="1"/><circle id="Oval" cx="43" cy="50" r="1"/><circle id="Oval" cx="45" cy="54" r="1"/><path id="Shape" d="m59 58h-1.314c.019-.027.042-.05.062-.077 1.0130785-1.4322948 1.2736823-3.2650841.7-4.923l-.5-1.471c-.6429524-1.7651257-.9978176-3.6221746-1.051-5.5-.0293619-2.6436402.3878349-5.2732644 1.234-7.778 1.936-6.1.638-13.364-3.908-18.071-2.333-2.39-4.213-8.071-4.213-11.18v-3.278c.6167513-.35441258.997855-1.01067322 1-1.722v-1c0-1.65685425-1.3431458-3-3-3h-6c-1.6568542 0-3 1.34314575-3 3v1c.00209.71108064.3832566 1.36706839 1 1.721v3.279c0 3.1-1.885 8.785-4.226 11.181-.6230817.641848-1.1898348 1.3360703-1.694 2.075-.504802-3.1475116-.3343644-6.3663963.5-9.443.5389155-1.6177931.401895-3.38463714-.38-4.9-.784868-1.54087641-2.1587525-2.69948302-3.81-3.213-1.0391431-.3239638-2.1424164-.38512314-3.211-.178-.022-.046-.039-.093-.063-.138-1.3072631-2.54083701-3.8704629-4.19152295-6.7244892-4.33053246-2.8540262-.13900952-5.5655109 1.25476521-7.1135108 3.65653246-2.0938973-1.19447862-4.61478091-1.38107661-6.86172707-.507911-2.24694617.8731656-3.98036059 2.71298821-4.71827293 5.007911-2.3 7.138-2.274 16.694.063 26.219s6.742 18.006 12.082 23.271c.108.107.225.2.338.3h-13.191c-.55228475 0-1 .4477153-1 1s.44771525 1 1 1h58c.5522847 0 1-.4477153 1-1s-.4477153-1-1-1zm-2.773-20.351c-.7882495 2.3950141-1.2284104 4.8908307-1.307 7.411h-12.472c.2752398-.7789935.3912001-1.6053378.341-2.43 2.7710185.930172 5.8282862.040637 7.6677199-2.2309807s2.0737432-5.4470323.5876554-7.9640357c-1.4860878-2.5170035-4.3796793-3.8456443-7.257215-3.3322715s-5.1331546 2.7606695-5.6571603 5.6362879c-1.3643546-2.4345351-2.4067396-5.0359597-3.101-7.739h21.03c1.1886561 3.4411928 1.2475142 7.1720243.168 10.649zm-15.842.216c-.2454349-.5912606-.3728274-1.2248261-.375-1.865 0-2.7614237 2.2385763-5 5-5s5 2.2385763 5 5-2.2385763 5-5 5c-1.0508766.0009656-2.074224-.3359432-2.919-.961-.315777-.6099761-.7273363-1.1653618-1.219-1.645-.165-.16-.325-.352-.487-.529zm.626-34.865c0-.55228475.4477153-1 1-1h6c.5522847 0 1 .44771525 1 1v1h-8zm1 6v-3h6v3c.1681478 3.132613.9818284 6.1966822 2.39 9h-10.788c1.411222-2.8025535 2.2273278-5.8667804 2.397-9zm-4.796 12.579c.463739-.4872935.8821337-1.0158098 1.25-1.579h13.08c.3662755.5620127.7833581 1.0892238 1.246 1.575.9761756 1.0146236 1.7958299 2.1689477 2.432 3.425h-20.429c.6295685-1.2560748 1.4458338-2.4095005 2.421-3.421zm-7.415-14.968c1.1405078.35159247 2.0906889 1.14887918 2.635 2.211.5364496 1.04088183.6298438 2.2542849.259 3.365-1.213 3.678-1.137 9.137.2 14.6s3.8 10.34 6.58 13.038c.841528.8126203 1.319917 1.9301833 1.327 3.1.0090708 1.8972055-1.1815249 3.5930725-2.969 4.229-.3765047-1.3202498-1.0894439-2.5200826-2.069-3.482-3.24-3.188-6.145-9.052-7.773-15.684s-1.766-13.176-.371-17.5c.4227812-1.30640604.4992747-2.70017309.222-4.045.6574763-.08584228 1.3257397-.02853332 1.959.168zm-7.953-4.28c3.1528584 1.01535674 4.8864884 4.39354057 3.873 7.547-1.5 4.664-1.381 11.614.332 18.592s4.819 13.2 8.313 16.634c2.1630646 2.1307679 2.3886136 5.5433574.5247984 7.9402749-1.8638152 2.3969174-5.226775 3.019124-7.8247984 1.4477251.9483914-2.8839766.1826245-6.0562734-1.977-8.19-3.241-3.195-6.147-9.059-7.773-15.687s-1.766-13.171-.372-17.5c.9264304-2.8924939.1350031-6.0601399-2.043-8.177 1.4276487-2.37877678 4.3068435-3.45925192 6.947-2.607zm3.32 55.285c.3891095-.3963031.7359731-.8319773 1.035-1.3 1.6997718.9904241 3.7102399 1.3042585 5.631.879.1402235.2810078.305563.5487641.494.8h-7.578c.142-.12.284-.244.418-.379zm-9.91-1.343c-5.084-5.01-9.292-13.146-11.543-22.321s-2.289-18.334-.1-25.129c.62960385-2.07410387 2.32893738-3.64737667 4.44532809-4.11556276s4.32076121.24151274 5.76646661 1.85651851c1.4457055 1.61500577 1.9079533 3.88420135 1.2092053 5.93604425-1.5 4.669-1.378 11.62.333 18.592s4.819 13.191 8.312 16.635c1.5556746 1.4984887 2.1858348 3.7175091 1.6499223 5.8099693-.5359126 2.0924602-2.1551742 3.7353677-4.2396458 4.3015567-2.0844716.5661891-4.3123938-.0317374-5.8332765-1.565526zm20.953 1.727c-1.0280567-.0157786-1.9696079-.5788034-2.47-1.477 2.7220243-1.3637186 4.4327928-4.155544 4.412-7.2 0-.051-.007-.1-.008-.151 1.2471144-.371437 2.3554858-1.1055938 3.184-2.109h13.64c.1297359 1.7518785.4981406 3.4778291 1.095 5.13l.492 1.456c.3655002 1.0478885.2031594 2.2077316-.436 3.115-.5245561.7662236-1.3904584 1.2277395-2.319 1.236z"/></g></g></svg>