<?xml version="1.0" encoding="iso-8859-1"?>
<!-- Generator: Adobe Illustrator 17.1.0, SVG Export Plug-In . SVG Version: 6.00 Build 0)  -->
<!DOCTYPE svg PUBLIC "-//W3C//DTD SVG 1.1//EN" "http://www.w3.org/Graphics/SVG/1.1/DTD/svg11.dtd">
<svg version="1.1" id="Capa_1" xmlns="http://www.w3.org/2000/svg" xmlns:xlink="http://www.w3.org/1999/xlink" x="0px" y="0px"
	 viewBox="0 0 283.145 283.145" style="enable-background:new 0 0 283.145 283.145;" xml:space="preserve">
<g>
	<path d="M180.997,46.35c-1.506-1.506-3.515-2.335-5.657-2.335c-2.143,0-4.151,0.829-5.656,2.335L28.279,187.754
		c-2.832,2.832-5.995,8.281-7.05,12.147L0.279,276.72c-0.521,1.911-0.308,3.62,0.603,4.811c0.792,1.037,2.06,1.608,3.571,1.608
		c0.62,0,1.281-0.095,1.965-0.281l76.819-20.95c3.864-1.054,9.313-4.216,12.147-7.049l141.403-141.404
		c1.506-1.506,2.335-3.515,2.335-5.657s-0.829-4.151-2.335-5.656L180.997,46.35z M65.154,241.777l-3.702,3.702
		c-1.167,1.167-3.424,2.476-5.016,2.911l-26.926,7.343c-1.592,0.434-2.539-0.513-2.105-2.105l7.343-26.926
		c0.434-1.592,1.744-3.849,2.911-5.016l3.702-3.702c1.167-1.167,3.076-1.167,4.243,0l19.549,19.549
		C66.321,238.701,66.321,240.61,65.154,241.777z"/>
	<path d="M278.089,47.702L235.436,5.05c-3.253-3.253-7.596-5.045-12.227-5.045c-4.631,0-8.974,1.792-12.227,5.045l-13.246,13.246
		c-0.242,0.242-0.811,0.808-0.811,1.704c-0.001,0.749,0.382,1.496,1.17,2.284l62.59,62.59c0.965,0.965,1.885,1.167,2.487,1.167
		c0.645,0,1.268-0.238,1.667-0.639l13.248-13.248C284.831,65.413,284.831,54.444,278.089,47.702z"/>
</g>
<g>
</g>
<g>
</g>
<g>
</g>
<g>
</g>
<g>
</g>
<g>
</g>
<g>
</g>
<g>
</g>
<g>
</g>
<g>
</g>
<g>
</g>
<g>
</g>
<g>
</g>
<g>
</g>
<g>
</g>
</svg>
