<svg height="512" viewBox="0 0 60 60" width="512" xmlns="http://www.w3.org/2000/svg"><g id="034---Pottery"><path id="Shape" d="m59 42h-3.666c-.3680415-1.3635559-.8298066-2.7000685-1.382-4h3.048c.5522847 0 1-.4477153 1-1s-.4477153-1-1-1h-3.939c-.635-1.339-1.332-2.673-2.052-4h2.991c.5522847 0 1-.4477153 1-1s-.4477153-1-1-1h-4.091c-4.96-8.931-9.73-17.152-3.722-25.4 2.2-2.9 1-4.6-1.027-4.6h-19.2c-2.037 0-3.239 1.712-1.039 4.588 6.009 8.257 1.244 16.468-3.721 25.412h-3.2c.11-.109.031-.008 2.11-3.188.47807-.6879902.7833501-1.4810324.89-2.312-.0069901-1.4126959-.8604636-2.6834377-2.1655443-3.2242918-1.3050807-.540854-2.8072325-.2463352-3.8114557.7472918l-8.436 8.435c-.30052202.3242338-.7155302.5186455-1.157.542h-3.43c-1.1045695 0-2 .8954305-2 2v10c0 1.1045695.8954305 2 2 2 2.943 0 4.946-.227 7.176 1.108 1.8178926 1.0827707 3.8665718 1.7191704 5.978 1.857.2267311 3.1568387 1.3977986 6.1724856 3.361 8.655 1.7069901 1.9275842 4.0818669 3.1355727 6.645 3.38h20.8c2.5673754-.2479269 4.9442074-1.4635148 6.648-3.4 2.8249563-3.5457726 3.9750117-8.1416171 3.153-12.6h3.239c.5522847 0 1-.4477153 1-1s-.4477153-1-1-1zm-13.64-39.988c-.16.722-.914 1.445-1.817 2.988h-15.969c-.909-1.558-1.661-2.273-1.821-2.988.133-.018 19.454-.021 19.607 0zm-43.36 40.988v-10h3.45c.96566275-.0233476 1.88267103-.4286293 2.55-1.127l8.433-8.433c.4282988-.4334743 1.0762756-.5647576 1.6395208-.3321748.5632451.2325827.9298066.7828026.9274792 1.3921748-.032.582-1.379 2.469-2.5 4.179-.5187677.5897108-.6443514 1.4284727-.3210499 2.1442624.3233016.7157896 1.0356339 1.176089 1.8210499 1.1767376h10.888c.5466723-.0222991 1.0239637.3670023 1.112.907.0240377.2804188-.0703749.5581007-.2603577.7657519s-.4581967.32632-.7396423.3272481h-9c-.5522847 0-1 .4477153-1 1s.4477153 1 1 1h13.888c.5468458-.0217762 1.0239996.3678422 1.112.908.0237423.2802539-.0708033.5576659-.2607528.7650908-.1899496.2074249-.457991.325958-.7392472.3269092h-14c-.2636059.000781-.5159691.1068717-.7009536.2946732s-.2872493.4417392-.2840464.7053268c.0071239.555161.4597945 1.0011419 1.015 1h10.97c.4042387.003293.7667342.2496464.9186036.6242868.1518695.3746405.0632373.8038692-.2246036 1.0877132-.1823963.1865985-.4330776.2906276-.694.288h-11c-.5522847 0-1 .4477153-1 1s.4477153 1 1 1h7c.4042387.003293.7667342.2496464.9186036.6242868.1518695.3746405.0632373.8038692-.2246036 1.0877132-.1823963.1865985-.4330776.2906276-.694.288h-10.89c-2.0805135.0186566-4.1257409-.5378114-5.91-1.608-2.725-1.633-5.077-1.392-8.2-1.392zm49.025 12.38c-1.3195757 1.4523893-3.1171353 2.3822227-5.065 2.62h-20.8c-1.9431006-.2343869-3.7380766-1.1567067-5.06-2.6-1.6836877-2.1257103-2.7069216-4.6985716-2.943-7.4h9.843c.9740055.000186 1.887479-.4724968 2.4498973-1.2677153.5624182-.7952185.7037712-1.8139835.3791027-2.7322847 1.255 0 2.3.131 3.279-.874.8294617-.8121879 1.1109365-2.0325626.721-3.126.8693888.0461917 1.7162145-.2861858 2.3220739-.9114097s.9114385-1.4820844.8379261-2.3495903c-.1690256-1.5779582-1.514247-2.7661432-3.101-2.739h-2.059c.3178208-.9367262.1580685-1.9696357-.4278861-2.7665819-.5859547-.7969461-1.5242314-1.2574455-2.5131139-1.2334181h-5.4c4.161-7.491 8.324-15.2 5.08-23h13.975c-3.249 7.794.914 15.505 5.078 23h-9.621c-.5522847 0-1 .4477153-1 1s.4477153 1 1 1h10.73c.74 1.344 1.457 2.676 2.113 4h-9.843c-.5522847 0-1 .4477153-1 1s.4477153 1 1 1h10.781c.5847632 1.2978128 1.0795969 2.6342981 1.481 4h-9.262c-.5522847 0-1 .4477153-1 1s.4477153 1 1 1h9.733c.8282412 4.0071995-.1636185 8.1753543-2.708 11.38z"/><path id="Shape" d="m26 54c-3.146 0-4-3.107-4.031-3.247-.1382352-.5320081-.6799455-.8527092-1.2128665-.718036-.532921.1346731-.8572387.6742261-.7261335 1.208036.6796243 2.7568959 3.1309561 4.7101598 5.97 4.757.5522847 0 1-.4477153 1-1s-.4477153-1-1-1z"/></g></svg>